<?xml version="1.0" encoding="utf-8"?>
<!-- Generator: Adobe Illustrator 27.9.0, SVG Export Plug-In . SVG Version: 6.00 Build 0)  -->
<svg version="1.1" id="Layer_1" xmlns="http://www.w3.org/2000/svg" xmlns:xlink="http://www.w3.org/1999/xlink" x="0px" y="0px"
	 viewBox="0 0 430 246" style="enable-background:new 0 0 430 246;" xml:space="preserve">
<style type="text/css">
	.st0{fill:#FFFFFF;}
	.st1{fill-rule:evenodd;clip-rule:evenodd;fill:#FFFFFF;}
	.st2{fill-rule:evenodd;clip-rule:evenodd;fill:#231F20;}
	.st3{fill-rule:evenodd;clip-rule:evenodd;fill:#EB1C24;}
	.st4{fill-rule:evenodd;clip-rule:evenodd;fill:#F8A41A;}
	.st5{fill:#CD8979;}
	.st6{fill:#E1A697;}
</style>
<g>
	<g>
		<path class="st0" d="M98.7,186.2c0-1-0.1-1.7-0.4-2.2c-0.3-0.5-0.8-0.7-1.6-0.7h-0.3v-0.9h7.8c2.4,0,4.5,0.3,6.1,1
			c1.6,0.7,2.5,2,2.5,4.1c0,0.9-0.4,1.7-1.1,2.5c-0.7,0.8-1.7,1.3-3,1.7c3.3,0.3,4.9,1.9,4.9,4.6c0,2-0.8,3.4-2.4,4.2
			c-1.6,0.8-3.7,1.1-6.2,1.1h-6.4V186.2z M104.7,191.1c1.3,0,2.3-0.3,3-0.9c0.7-0.6,1.1-1.5,1.1-2.9c0-1.3-0.4-2.3-1.3-2.9
			c-0.9-0.6-1.9-0.9-3.2-0.9c-0.5,0-1.1,0.1-1.7,0.2v7.3H104.7z M108.4,199.4c0.8-0.7,1.3-1.7,1.3-3c0-2.7-1.6-4-4.9-4h-2.2v7.7
			c0.7,0.2,1.4,0.3,2.2,0.3C106.3,200.5,107.5,200.1,108.4,199.4z"/>
		<path class="st0" d="M130.9,201c-1-0.5-1.8-1.5-2.4-3l-0.7-1.6h-7.7l-2.4,5.3h-1.5l8.6-19.2h1.3l6.5,15.5c0.7,1.8,1.7,2.8,3,2.9
			v0.7c-0.3,0.1-0.8,0.1-1.4,0.1C133,201.7,131.9,201.5,130.9,201z M127.3,195l-3.2-7.6l-3.4,7.6H127.3z"/>
		<path class="st0" d="M139,186.2c0-1-0.1-1.7-0.4-2.2c-0.3-0.5-0.8-0.7-1.6-0.7h-0.3v-0.9h8c2,0,3.8,0.4,5.4,1.2
			c1.6,0.8,2.4,2.3,2.4,4.7c0,1.5-0.4,2.7-1.3,3.5c-0.8,0.8-1.8,1.4-2.8,1.7c-1,0.3-2,0.4-2.9,0.4h-2.8v7.8H139V186.2z M144.5,192.7
			c1.1,0,2.1-0.3,2.8-1c0.7-0.7,1.1-1.9,1.1-3.5c0-1.6-0.4-2.8-1.1-3.5c-0.7-0.7-1.6-1-2.7-1c-0.6,0-1.2,0.1-1.9,0.2v8.9H144.5z"/>
		<path class="st0" d="M159.2,201.7c-1-0.3-1.8-0.7-2.5-1.2c-0.6-0.5-1-1.1-1-1.8v-3.4h0.8c0.3,2,0.9,3.4,1.8,4.3
			c0.9,0.9,2.2,1.3,3.9,1.3c1.1,0,2-0.2,2.7-0.7c0.7-0.5,1-1.2,1-2.1c0-0.8-0.2-1.4-0.7-2c-0.5-0.5-1.2-1.1-2.3-1.8l-3.6-2.2
			c-1.3-0.8-2.2-1.5-2.8-2.4c-0.6-0.8-0.8-1.8-0.8-2.8c0-1.5,0.6-2.7,1.8-3.6c1.2-0.9,2.8-1.3,4.8-1.3c1.1,0,2.1,0.1,3.1,0.4
			c1,0.3,1.8,0.7,2.5,1.2c0.6,0.5,1,1.1,1,1.8v3.4h-0.8c-0.3-2-0.9-3.4-1.8-4.3c-0.9-0.9-2.1-1.3-3.6-1.3c-1,0-1.9,0.3-2.5,0.8
			c-0.6,0.5-0.9,1.2-0.9,2.1c0,0.8,0.2,1.4,0.7,1.9c0.5,0.5,1.2,1.1,2.3,1.7l3.6,2.1c1.4,0.8,2.3,1.6,2.9,2.3
			c0.6,0.7,0.9,1.6,0.9,2.7c0,1.7-0.6,3-1.9,4c-1.3,1-3.1,1.4-5.4,1.4C161.3,202.1,160.2,202,159.2,201.7z"/>
		<path class="st0" d="M183.7,186.2c0-1-0.1-1.7-0.4-2.2c-0.3-0.5-0.8-0.7-1.6-0.7h-0.3v-0.9h3.5c0.7,0,1.2,0.1,1.6,0.3
			c0.4,0.2,0.6,0.6,0.8,1.1c0.2,0.5,0.2,1.3,0.2,2.3v4.8h7.8v-8.6h3.8v15.4c0,1,0.1,1.7,0.4,2.2c0.3,0.5,0.8,0.7,1.6,0.7h0.3v0.9
			h-3.5c-0.7,0-1.2-0.1-1.6-0.3c-0.4-0.2-0.6-0.6-0.8-1.1c-0.2-0.5-0.2-1.3-0.2-2.3v-5.5h-7.8v9.3h-3.8V186.2z"/>
		<path class="st0" d="M205.6,191.7c0-1-0.1-1.7-0.4-2.2c-0.3-0.5-0.8-0.7-1.6-0.7h-0.3V188h3.5c0.7,0,1.2,0.1,1.6,0.3
			c0.4,0.2,0.6,0.6,0.8,1.1c0.2,0.5,0.2,1.3,0.2,2.3v9.9h-3.8V191.7z M205.9,185.8c-0.4-0.4-0.6-0.9-0.6-1.6c0-0.5,0.1-0.9,0.5-1.2
			c0.3-0.3,0.7-0.4,1.1-0.4c0.7,0,1.2,0.2,1.6,0.6c0.4,0.4,0.6,0.9,0.6,1.6c0,0.5-0.2,0.9-0.5,1.2c-0.3,0.3-0.7,0.4-1.1,0.4
			C206.8,186.4,206.3,186.2,205.9,185.8z"/>
		<path class="st0" d="M214.8,191.7c0-1-0.1-1.7-0.4-2.2c-0.3-0.5-0.8-0.7-1.6-0.7h-0.3V188h2.9c0.7,0,1.2,0.1,1.6,0.2
			c0.4,0.2,0.7,0.4,0.9,0.8c1-0.9,2.4-1.4,4.2-1.4c1.8,0,3.2,0.4,4.1,1.3c0.9,0.9,1.4,2.2,1.4,4.1v8.6h-3.8V193
			c0-1.3-0.2-2.3-0.7-2.9c-0.5-0.6-1.2-0.9-2-0.9c-1,0-1.9,0.2-2.5,0.7v11.8h-3.8V191.7z"/>
		<path class="st0" d="M233.3,199.9c-1.1-1.3-1.6-3-1.6-5.1c0-2.1,0.5-3.8,1.6-5.1c1.1-1.3,2.6-2,4.6-2c1.1,0,2.1,0.3,3.1,0.9v-2.3
			c0-1-0.1-1.7-0.4-2.2c-0.3-0.5-0.8-0.7-1.6-0.7h-0.3v-0.9h3.5c0.7,0,1.2,0.1,1.6,0.3c0.4,0.2,0.6,0.6,0.8,1.1
			c0.2,0.5,0.2,1.3,0.2,2.3v15.4h-2.5l-1-1.3h-0.1c-0.3,0.4-0.7,0.8-1.3,1.1c-0.6,0.3-1.3,0.5-2,0.5
			C235.9,201.9,234.4,201.3,233.3,199.9z M240,200c0.4-0.4,0.8-0.8,1-1.3v-8.9c-0.8-0.6-1.6-0.9-2.5-0.9c-1.9,0-2.9,1.9-2.9,5.8
			c0,1.8,0.2,3.2,0.7,4.3c0.4,1,1.1,1.6,2.1,1.6C239.1,200.6,239.6,200.4,240,200z"/>
		<path class="st0" d="M251.4,200.6c-0.9-0.9-1.3-2.2-1.3-4.1v-4.8c0-1-0.1-1.7-0.4-2.2c-0.3-0.5-0.8-0.7-1.6-0.7h-0.3V188h3.5
			c0.7,0,1.2,0.1,1.6,0.3c0.4,0.2,0.6,0.6,0.8,1.1c0.2,0.5,0.2,1.3,0.2,2.3v4.9c0,1.5,0.2,2.5,0.6,3.1c0.4,0.6,1,0.9,1.9,0.9
			c0.6,0,1.1-0.2,1.6-0.6c0.4-0.4,0.8-0.8,1-1.3V188h3.8v13.7h-2.5l-1-1.3h-0.1c-1,1.1-2.2,1.6-3.6,1.6
			C253.6,201.9,252.2,201.5,251.4,200.6z"/>
		<path class="st0" d="M294.7,201.5c-0.9-1-1.4-2.6-1.4-4.8v-10.3l-6.4,15.2h-1l-7.8-15.8v15.8h-1.5v-19.2h3.5l7,14.3l6-14.3h3.8
			v14.2c0,1.8,0.2,3.2,0.5,4c0.3,0.9,0.9,1.4,1.7,1.5v0.7C297.2,202.9,295.6,202.5,294.7,201.5z"/>
		<path class="st0" d="M303.2,200.9c-0.9-0.7-1.3-1.7-1.3-2.9c0-1,0.2-1.8,0.7-2.4c0.5-0.6,1.3-1.1,2.4-1.5c1.1-0.3,2.7-0.5,4.8-0.5
			h0.4c0-1.7-0.2-2.9-0.7-3.6c-0.5-0.7-1.2-1.1-2.1-1.1c-0.8,0-1.4,0.2-1.9,0.6c-0.5,0.4-0.8,1.1-1,2.1h-1.6c0-0.7,0-1.2,0.1-1.7
			c0.1-0.5,0.3-0.9,0.6-1.2c0.6-0.7,2.1-1,4.4-1c1.9,0,3.4,0.5,4.4,1.5c1,1,1.5,2.5,1.5,4.6v7.8h-2.5l-1-1.3h-0.1
			c-0.3,0.4-0.7,0.8-1.4,1.1c-0.6,0.3-1.3,0.5-2.1,0.5C305.3,201.9,304,201.6,303.2,200.9z M309.2,199.9c0.4-0.4,0.8-0.8,0.9-1.3
			v-3.6h-0.4c-1.4,0-2.4,0.2-3,0.7c-0.6,0.5-0.9,1.3-0.9,2.3c0,0.8,0.2,1.4,0.5,1.8c0.3,0.4,0.8,0.6,1.4,0.6
			C308.3,200.5,308.8,200.3,309.2,199.9z"/>
		<path class="st0" d="M319.2,191.7c0-1-0.1-1.7-0.4-2.2c-0.3-0.5-0.8-0.7-1.6-0.7h-0.3V188h2.9c0.7,0,1.2,0.1,1.6,0.2
			c0.4,0.2,0.7,0.4,0.9,0.8c1-0.9,2.4-1.4,4.2-1.4c1.8,0,3.2,0.4,4.1,1.3c0.9,0.9,1.4,2.2,1.4,4.1v8.6h-3.8V193
			c0-1.3-0.2-2.3-0.7-2.9c-0.5-0.6-1.2-0.9-2-0.9c-1,0-1.9,0.2-2.5,0.7v11.8h-3.8V191.7z"/>
		<path class="st0" d="M337.7,199.9c-1.1-1.3-1.6-3-1.6-5.1c0-2.1,0.5-3.8,1.6-5.1c1.1-1.3,2.6-2,4.6-2c1.1,0,2.1,0.3,3.1,0.9v-2.3
			c0-1-0.1-1.7-0.4-2.2c-0.3-0.5-0.8-0.7-1.6-0.7h-0.3v-0.9h3.5c0.7,0,1.2,0.1,1.6,0.3c0.4,0.2,0.6,0.6,0.8,1.1
			c0.2,0.5,0.2,1.3,0.2,2.3v15.4h-2.5l-1-1.3h-0.1c-0.3,0.4-0.7,0.8-1.3,1.1c-0.6,0.3-1.3,0.5-2,0.5
			C340.3,201.9,338.8,201.3,337.7,199.9z M344.4,200c0.4-0.4,0.8-0.8,1-1.3v-8.9c-0.8-0.6-1.6-0.9-2.5-0.9c-1.9,0-2.9,1.9-2.9,5.8
			c0,1.8,0.2,3.2,0.7,4.3c0.4,1,1.1,1.6,2.1,1.6C343.5,200.6,344,200.4,344.4,200z"/>
		<path class="st0" d="M354.7,191.7c0-1-0.1-1.7-0.4-2.2c-0.3-0.5-0.8-0.7-1.6-0.7h-0.3V188h3.5c0.7,0,1.2,0.1,1.6,0.3
			c0.4,0.2,0.6,0.6,0.8,1.1c0.2,0.5,0.2,1.3,0.2,2.3v9.9h-3.8V191.7z M355,185.8c-0.4-0.4-0.6-0.9-0.6-1.6c0-0.5,0.1-0.9,0.5-1.2
			c0.3-0.3,0.7-0.4,1.1-0.4c0.7,0,1.2,0.2,1.6,0.6c0.4,0.4,0.6,0.9,0.6,1.6c0,0.5-0.2,0.9-0.5,1.2c-0.3,0.3-0.7,0.4-1.1,0.4
			C355.9,186.4,355.4,186.2,355,185.8z"/>
		<path class="st0" d="M373.5,189.1c0.2,0.3,0.2,0.5,0.2,0.5l-1.5,1.1c-0.2-0.3-0.5-0.6-0.8-0.8c-0.3-0.2-0.7-0.3-1.2-0.3
			c-1.1,0-2,0.3-2.6,0.9c0.1,0.6,0.1,1.1,0.1,1.4v9.8H364v-9.9c0-1-0.1-1.7-0.4-2.2c-0.3-0.5-0.8-0.7-1.6-0.7h-0.3V188h2.9
			c0.7,0,1.2,0.1,1.6,0.2c0.4,0.2,0.7,0.4,0.9,0.8c1-0.9,2.3-1.4,3.7-1.4c0.8,0,1.5,0.2,2.1,0.6
			C373.1,188.5,373.3,188.8,373.5,189.1z"/>
	</g>
	<g>
		<path class="st0" d="M193.6,230.8c-0.7-0.4-1.2-1.1-1.6-2.3l-0.5-1.4h-6.1l-1.7,4.1h-1l6.1-14.4h0.7l4.8,11.7
			c0.4,0.8,0.7,1.4,1,1.7c0.3,0.3,0.8,0.5,1.4,0.6v0.4c-0.3,0.1-0.6,0.1-0.9,0.1C195,231.4,194.3,231.2,193.6,230.8z M191,226.3
			l-2.6-6.3l-2.7,6.3H191z"/>
		<path class="st0" d="M201.7,231.1c-0.5-0.2-0.9-0.5-1.1-0.9h-0.1l-0.8,1h-1.1v-11.8c0-0.7-0.1-1.3-0.3-1.6
			c-0.2-0.4-0.6-0.5-1.2-0.5h-0.4v-0.4h2c0.5,0,0.9,0.1,1.2,0.2c0.3,0.1,0.5,0.4,0.6,0.8c0.1,0.4,0.2,0.9,0.2,1.7v2
			c0.4-0.2,0.8-0.4,1.3-0.5c0.4-0.1,0.9-0.2,1.5-0.2c1.4,0,2.4,0.5,3.1,1.5c0.7,1,1.1,2.3,1.1,3.8c0,1.5-0.3,2.8-1,3.8
			c-0.7,1-1.6,1.5-2.9,1.5C202.8,231.5,202.2,231.4,201.7,231.1z M204.8,229.4c0.4-0.8,0.6-1.9,0.6-3.2c0-1.4-0.2-2.4-0.7-3.2
			c-0.4-0.8-1.1-1.2-2.1-1.2c-0.3,0-0.6,0.1-0.9,0.2c-0.3,0.1-0.7,0.3-1.1,0.5v7c0.3,0.4,0.6,0.7,0.9,0.9c0.4,0.2,0.8,0.4,1.4,0.4
			C203.7,230.6,204.4,230.2,204.8,229.4z"/>
		<path class="st0" d="M212.2,230.6c-0.7-0.6-1-1.6-1-3.1v-3.9c0-0.7-0.1-1.3-0.3-1.6c-0.2-0.4-0.6-0.5-1.2-0.5h-0.2V221h1.7
			c0.5,0,0.9,0.1,1.2,0.2c0.3,0.1,0.5,0.4,0.6,0.8c0.1,0.4,0.2,0.9,0.2,1.7v3.9c0,1,0.2,1.8,0.7,2.2c0.5,0.5,1,0.7,1.7,0.7
			c0.8,0,1.5-0.4,2.2-1.2V221h2v10.2h-1.1l-0.8-0.9h-0.1c-0.3,0.3-0.7,0.6-1.2,0.8c-0.5,0.2-1,0.3-1.6,0.3
			C213.8,231.5,212.9,231.2,212.2,230.6z"/>
		<path class="st0" d="M231.2,219.5c0-0.7-0.1-1.3-0.3-1.6c-0.2-0.4-0.6-0.5-1.2-0.5h-0.4v-0.4h5.7c2.8,0,5,0.6,6.4,1.9
			c1.4,1.3,2.2,3,2.2,5.2c0,1.4-0.3,2.7-0.9,3.8c-0.6,1.1-1.5,2-2.7,2.6c-1.2,0.6-2.7,0.9-4.4,0.9h-4.3V219.5z M238.3,229.7
			c0.9-0.5,1.5-1.3,2-2.2c0.5-1,0.7-2.1,0.7-3.4c0-1.3-0.2-2.4-0.7-3.4c-0.5-1-1.2-1.7-2-2.3c-0.9-0.5-1.9-0.8-3-0.8
			c-0.7,0-1.4,0.1-2.2,0.3v12.2c0.8,0.2,1.6,0.3,2.2,0.3C236.5,230.5,237.5,230.2,238.3,229.7z"/>
		<path class="st0" d="M247.1,219.5c0-0.7-0.1-1.3-0.3-1.6c-0.2-0.4-0.6-0.5-1.2-0.5h-0.4v-0.4h2c0.5,0,0.9,0.1,1.2,0.2
			c0.3,0.1,0.5,0.4,0.6,0.8c0.1,0.4,0.2,0.9,0.2,1.7v2.4c0.3-0.3,0.7-0.6,1.2-0.8c0.5-0.2,1-0.3,1.6-0.3c1.1,0,2,0.3,2.7,0.9
			c0.7,0.6,1,1.6,1,3.1v6.5h-2v-6.5c0-1-0.2-1.8-0.7-2.2c-0.5-0.5-1-0.7-1.7-0.7c-0.8,0-1.5,0.4-2.2,1.2v8.3h-2V219.5z"/>
		<path class="st0" d="M260.8,231.2c-0.5-0.2-0.9-0.5-1.2-1c-0.3-0.5-0.5-1-0.5-1.8c0-1.1,0.5-1.9,1.5-2.4c1-0.5,2.4-0.7,4-0.7h0.7
			c0-1.4-0.2-2.4-0.6-2.9c-0.4-0.5-1-0.8-1.7-0.8c-0.7,0-1.2,0.1-1.6,0.4c-0.4,0.3-0.7,0.8-0.8,1.4h-1c0-0.5,0-0.9,0.1-1.2
			c0.1-0.3,0.2-0.5,0.5-0.8c0.3-0.3,0.7-0.5,1.3-0.6c0.6-0.1,1.3-0.2,2-0.2c1.2,0,2.1,0.3,2.8,0.9c0.7,0.6,1,1.8,1,3.6v5.9h-1.1
			l-0.8-1h-0.1c-0.3,0.3-0.6,0.6-1.2,0.9c-0.5,0.2-1.1,0.3-1.9,0.3C261.7,231.5,261.2,231.4,260.8,231.2z M264.4,230.2
			c0.3-0.2,0.6-0.6,0.9-1v-2.9h-0.7c-1.1,0-1.9,0.2-2.6,0.6c-0.6,0.4-0.9,0.9-0.9,1.6c0,0.7,0.2,1.2,0.6,1.5
			c0.4,0.4,0.9,0.5,1.5,0.5C263.6,230.5,264,230.4,264.4,230.2z"/>
		<path class="st0" d="M274.4,231.1c-0.5-0.2-0.9-0.5-1.1-0.9h-0.1l-0.8,1h-1.1v-11.8c0-0.7-0.1-1.3-0.3-1.6
			c-0.2-0.4-0.6-0.5-1.2-0.5h-0.4v-0.4h2c0.5,0,0.9,0.1,1.2,0.2c0.3,0.1,0.5,0.4,0.6,0.8c0.1,0.4,0.2,0.9,0.2,1.7v2
			c0.4-0.2,0.8-0.4,1.3-0.5c0.4-0.1,0.9-0.2,1.5-0.2c1.4,0,2.4,0.5,3.1,1.5c0.7,1,1.1,2.3,1.1,3.8c0,1.5-0.3,2.8-1,3.8
			c-0.7,1-1.6,1.5-2.9,1.5C275.5,231.5,274.9,231.4,274.4,231.1z M277.4,229.4c0.4-0.8,0.6-1.9,0.6-3.2c0-1.4-0.2-2.4-0.7-3.2
			c-0.4-0.8-1.1-1.2-2.1-1.2c-0.3,0-0.6,0.1-0.9,0.2c-0.3,0.1-0.7,0.3-1.1,0.5v7c0.3,0.4,0.6,0.7,0.9,0.9c0.4,0.2,0.8,0.4,1.4,0.4
			C276.4,230.6,277,230.2,277.4,229.4z"/>
		<path class="st0" d="M284.1,223.6c0-0.7-0.1-1.3-0.3-1.6c-0.2-0.4-0.6-0.5-1.2-0.5h-0.4V221h2c0.5,0,0.9,0.1,1.2,0.2
			c0.3,0.1,0.5,0.4,0.6,0.8c0.1,0.4,0.2,0.9,0.2,1.7v7.6h-2V223.6z M284.1,219.3c-0.2-0.3-0.4-0.6-0.4-1c0-0.3,0.1-0.5,0.3-0.7
			c0.2-0.2,0.4-0.3,0.7-0.3c0.3,0,0.6,0.1,0.9,0.4c0.2,0.3,0.4,0.6,0.4,1c0,0.3-0.1,0.5-0.3,0.7c-0.2,0.2-0.4,0.3-0.7,0.3
			C284.6,219.7,284.3,219.6,284.1,219.3z"/>
	</g>
	<g>
		<g>
			<path class="st1" d="M70.7,205.7l0-0.4l0-1.7c0.6,0,1.2,0.4,1.2,1v0.3C71.9,205.4,71.2,205.7,70.7,205.7L70.7,205.7z M69.3,203.5
				l0,4h0c0.2,0,0.2,0.2,0.3,0.2l1.2,0l-0.1-1.5c0.6-0.1,1.2-0.1,1.6-0.3c0.4-0.2,0.8-0.5,0.8-1.1v-0.1c0-0.6-0.4-1-0.8-1.2
				c-0.4-0.2-1.2-0.2-1.8-0.2h-1C69.5,203.3,69.3,203.4,69.3,203.5L69.3,203.5z"/>
			<path class="st1" d="M60.6,207.2l-0.1,0l0-1.3v-0.3c0.6,0,1.5,0.3,1.5,0.8v0.1C62,207,61.2,207.2,60.6,207.2L60.6,207.2z
				 M60.5,203.6c0.5,0,1.3,0.3,1.3,0.8v0.2c0,0.5-0.7,0.7-1.2,0.7h-0.1l0-0.1L60.5,203.6L60.5,203.6z M59.1,203.5
				c0,0.5,0.1,1.6,0.1,1.9c0,0.3,0,0.7,0,1c0,0.3-0.1,0.6-0.1,0.9c0,0.1,0.2,0.2,0.2,0.2h2.2c0.7,0,1.8-0.4,1.8-1v-0.2
				c0-0.6-0.7-1.1-1.3-1.1v0c0.4,0,1.1-0.4,1.1-0.8v-0.3c0-0.5-0.9-0.9-1.4-0.9c-0.8,0-1.5,0-2.3,0
				C59.3,203.3,59.1,203.4,59.1,203.5L59.1,203.5z"/>
			<path class="st1" d="M63.9,207.8L63.9,207.8c0.1-0.2,2-2.7,2.1-2.7l1.8,2.7h0.1c0.1-0.1,1.2-0.8,1.2-0.8c0,0-1.3-1.7-1.4-1.9
				c-0.2-0.3-1.2-1.9-1.3-2l-1.2,0.7c0.1,0.1,0.4,0.5,0.4,0.6c0,0.1-1.8,2.4-2,2.8L63.9,207.8L63.9,207.8z"/>
			<path class="st1" d="M73.6,204.3v0.1c0,0.9,0.7,1.6,0.7,2.2v0.1c0,0.4-0.4,0.5-0.8,0.6l0.2,0.3c0.1,0,0.5-0.1,0.6-0.1
				c0.2-0.1,0.4-0.1,0.5-0.2c0.3-0.2,0.6-0.4,0.6-0.9v-0.1c0-0.8-0.7-1.6-0.7-2.2c0-0.4,0.4-0.6,0.7-0.7c0-0.1-0.2-0.3-0.3-0.3h-0.1
				C74.4,203.2,73.6,203.6,73.6,204.3L73.6,204.3z"/>
			<path class="st1" d="M65.9,207.6c0.4,0,0.8-0.3,0.8-0.7c0-0.4-0.3-0.7-0.7-0.7h-0.2c-0.3,0-0.7,0.3-0.7,0.6v0.2
				C65.1,207.3,65.5,207.6,65.9,207.6L65.9,207.6z"/>
			<path class="st1" d="M66.6,178c-0.1,0-0.1,0-0.1-0.1l0-0.2l0.2,0.1L66.6,178L66.6,178z M66.6,176.8c-0.2,0-0.2,0.2-0.3,0.3
				l-0.3-1.4l0.4,0c0.1,0,0.1,0,0.2,0c0,0.2-0.1,0.1-0.1,0.3v0.2c0,0.1,0.1,0.2,0.1,0.3c0,0.1-0.1,0.1-0.1,0.1V176.8L66.6,176.8z
				 M66.1,174.9c0,0.2,0,0.4-0.2,0.5c0-0.2-0.1-0.5-0.1-0.7c0-0.1-0.2-0.6,0-0.6C66,174.1,66.1,174.6,66.1,174.9L66.1,174.9
				L66.1,174.9z M67.5,173.9c-0.3-0.1-0.5-0.2-0.9-0.2c-0.3,0-0.7,0.2-0.9,0.2l0-0.3c-0.4,0-0.2,0.3-0.1,0.5
				c0.1,0.3,0.1,0.5,0.1,0.7c0.1,0.5,0.2,1,0.3,1.5c0.1,0.5,0.2,1,0.3,1.5c0,0.1,0.1,0.2,0.1,0.4c0,0.2,0,0.2-0.2,0.2
				c-0.2,0-0.5,0.2-0.5,0.4v0.1c0,0.1,0,0.1,0.1,0.1c-0.2,0.1-0.5,0.2-0.7,0.3c-0.2,0.1-0.4,0.2-0.7,0.4c-0.4,0.2-0.9,0.6-1.3,0.8
				c-0.4,0.3-0.8,0.6-1.2,0.9c-0.2,0.2-0.4,0.2-0.7,0.3c-0.1,0-0.8,0.1-0.9,0.1l-0.2-0.2c0,0,0.1-0.1,0.1-0.2v-0.1
				c0-0.3-0.3-0.6-0.4-0.9c-0.2,0.2-0.5,0.6-0.5,1c0,0.1,0,0.1,0.1,0.2c0,0.1,0.1,0.1,0.1,0.1c0,0.1-0.4-0.2-0.6-0.2h-0.2v0.6
				c-0.6,0.1-0.6,0.2-1.1,0.4c-0.2,0.1-0.8,0.5-0.8,0.7h-0.1l-0.1-0.2c0-0.1,0.1-0.1,0.1-0.3v-0.1c0-0.2-0.4-0.7-0.5-0.8
				c0,0.2-0.4,0.5-0.4,0.7v0.1l0,0.2l-0.2,0.3l-0.6,0l0,1.1l1.2,0.1c0,0.2-0.1,0.3-0.1,0.5c0,0.4,0.2,0.8,0.2,0.9
				c0,0-0.2,0.4-0.2,0.7v0.1c0,0.7,0.3,0.7,0.4,1.1c0.1,0,0.3-0.2,0.4-0.1c0,0,0.1,0.4,0.1,0.4c0.2,0.4,0.4,0.4,0.5,0.6
				c0,0.2,0,0.3,0.2,0.4c0,0.2,0,0.3,0.2,0.4c0,0.2,0.2,0.4,0.4,0.4h0.1c0,0.8,0.6,1.1,0.6,1.2v1H59c0.1,0,0.2,0.4,0.2,0.5v0
				c0,0.1-0.1,0.1-0.1,0.2v0.1c0,0.2,0.2,0.2,0.2,0.3l-0.2,3.6c-0.3,0-0.1-0.2-0.3-0.4c0,0,0.1-0.1,0.1-0.1l0-0.4l0,0
				c0-0.6-1.1-0.6-1.1,0v0.1c0,0.1,0,0.1,0.1,0.1c0,0.1-0.1,0.1-0.1,0.1c0,0.1,0,0.1,0.1,0.2c-0.3,0.2-0.2,0.8-0.2,1.3
				c0,0.5,0,1.2,0,1.5l0,2.4c-0.1-0.1-0.5,0.1-0.5,0.3v0.1c0,0.2,0.2,0.3,0.3,0.3l0.5,0l6.6,0c0.1,0,0.1,0,0.1,0c0,0,0,0,0.1,0h1.7
				l1.9,0l1.8,0l0.2,0l0.2,0l6.7,0c0.4-0.3,0.3-0.7-0.1-0.7H77v-0.3l0-2.1l0-0.7l0-0.1v-0.1l0-0.1l0-0.4l0-0.1c0,0,0,0,0-0.1
				c0-0.5,0.1-0.8-0.2-1.1c0-0.1,0.1-0.1,0.1-0.2c0-0.1,0-0.1-0.1-0.1c0,0,0.1,0,0.1-0.1v-0.1c0-0.3-0.2-0.4-0.5-0.4h-0.1
				c-0.2,0-0.4,0.2-0.4,0.4c0,0.1,0,0.2,0.1,0.2c0,0.1-0.1,0.1-0.1,0.1c0,0.1,0,0.1,0.1,0.1c-0.1,0.1-0.1,0.2-0.1,0.4v0.1h-0.1
				l-0.2-3.6c0.1-0.1,0.2-0.1,0.2-0.3v0c0-0.1-0.1-0.2-0.1-0.3c0.1-0.2,0-0.6,0.3-0.6v-1c0.3-0.1,0.6-0.6,0.6-0.9v-0.2
				c0.3,0,0.4-0.1,0.5-0.3c0.1-0.2,0.3-0.2,0.2-0.5c0.1-0.2,0.2-0.1,0.2-0.4c0.3-0.2,0.7-0.6,0.7-1H78c0.1,0,0.1,0,0.1,0.1h0.1
				c0-0.1,0.2-0.3,0.2-0.5c0.1-0.2,0.1-0.4,0.1-0.6v0c0-0.2-0.1-0.5-0.2-0.7c0.1-0.2,0.2-0.5,0.2-0.8v-0.2c0-0.2-0.1-0.3-0.1-0.4
				l1.2-0.1l0-0.6l0-0.5h-0.7c0-0.2-0.2-0.2-0.2-0.3c0,0,0.1-0.1,0.1-0.2c0-0.4-0.4-0.7-0.4-0.9c-0.1,0-0.2,0.3-0.3,0.4
				c-0.1,0.1-0.2,0.3-0.2,0.5c0,0,0.1,0.2,0.1,0.2l-0.1,0.2c-0.1-0.1-0.3-0.3-0.4-0.4c-0.2-0.1-0.3-0.2-0.5-0.3
				c-0.4-0.2-0.6-0.3-1.1-0.4v-0.5c0-0.1,0-0.1-0.1-0.1h0c-0.4,0-0.6,0.2-0.7,0.2c-0.1,0,0.1-0.2,0.1-0.3c0-0.2-0.4-0.9-0.5-1
				c-0.1,0.2-0.4,0.7-0.4,0.9c0,0.2,0.1,0.2,0.1,0.3l-0.2,0.2c-0.8-0.1-1.1-0.1-1.7-0.5c-0.4-0.3-0.8-0.6-1.3-0.9
				c-0.4-0.3-0.9-0.6-1.3-0.8c-0.1-0.1-1.4-0.7-1.4-0.7c0.1,0,0.1,0,0.1-0.1c0-0.3-0.3-0.4-0.5-0.5c-0.2-0.1-0.4-0.3-0.5-0.5
				c0.2-0.1,0.4-0.2,0.4-0.5c0-0.2-0.2-0.5-0.4-0.5v-0.2c0-0.1-0.1,0-0.1-0.2c0.1,0,0.2-0.2,0.2-0.3v-0.2h0.3c0.3,0,0.7-0.1,0.9-0.2
				c0.3-0.2,0.3-0.3,0.5-0.6c-0.2,0-0.3,0.2-0.6,0.2c-0.2,0-0.5,0-0.6-0.2c0.1,0,0.1,0,0.1,0c0.6,0,1.3-0.4,1.3-0.9
				c-0.1,0.1-0.4,0.2-0.6,0.2h-0.1C68.7,174.5,67.9,174.1,67.5,173.9L67.5,173.9z"/>
			<path class="st2" d="M77.1,201.6l-8.4,0l-4.6,0l-6.6,0c-0.1,0-0.1-0.1-0.1-0.1v0c0-0.2,0.7-0.1,0.9-0.1c0.3,0,0.7,0,1,0
				c0.5,0,1.6,0.1,1.9,0c0.5-0.1,1.3,0,1.9,0c0.7,0,1.3,0,2,0H65h2.3l0,0l3.9,0h6c0.1,0,0.1,0,0.1,0.1
				C77.3,201.6,77.2,201.6,77.1,201.6L77.1,201.6z M57.9,196.3h0.9v0.2h-0.9V196.3L57.9,196.3z M76,196.3h0.8l0,0.2l-0.9,0
				C75.9,196.3,75.9,196.3,76,196.3L76,196.3z M58.6,195.6c0,0,0.1,0.1,0.1,0.1c0,0.1-0.1,0.1-0.1,0.1l0.2,0.2l-0.7,0l0.2-0.2
				c0,0-0.1-0.1-0.1-0.2c0-0.1,0.1,0,0.1-0.1c0,0-0.1-0.1-0.1-0.2v0c0-0.1,0.2-0.2,0.3-0.2h0.1c0.1,0,0.2,0.1,0.2,0.2
				C58.7,195.5,58.6,195.6,58.6,195.6L58.6,195.6z M76,195.4c0-0.2,0.2-0.2,0.3-0.2c0.1,0,0.3,0.1,0.3,0.2v0.1c0,0.1,0,0.1-0.1,0.1
				l0.1,0.1l-0.1,0.1l0.2,0.2l-0.7,0l0.1-0.2l0,0c0-0.1-0.1-0.1-0.1-0.2c0-0.1,0-0.1,0.1-0.2C76,195.5,76,195.5,76,195.4L76,195.4z
				 M57.5,183.9c0.3,0.1,0.6,0.2,0.9,0.3c0.3,0.1,0.6,0.3,0.8,0.3v0.3c-0.5-0.3-1.3-0.5-2-0.7c-0.4-0.1-0.7-0.1-1.1-0.2
				c-0.2,0-0.3,0-0.6-0.1c-0.1,0-0.5,0-0.5-0.1v-0.5l0.6,0.4C56,183.6,57.1,183.8,57.5,183.9L57.5,183.9z M75.4,184.5
				c0.2,0,0.7-0.3,1-0.4c0.4-0.1,0.7-0.2,1.1-0.3c0.3-0.1,0.9-0.2,1.2-0.2c0.7,0,0.6-0.3,1-0.4v0.6c-0.6,0-1.8,0.2-2.3,0.3
				c-0.4,0.1-0.7,0.2-1,0.3c-0.3,0.1-0.7,0.3-0.9,0.4V184.5L75.4,184.5z M59.1,184.3c-0.2-0.1-0.6-0.2-0.9-0.3
				c-0.3-0.1-0.7-0.2-1-0.3c-0.4-0.1-0.7-0.1-1.1-0.2c-0.4-0.1-0.7,0-0.9-0.3c1.2,0,3.1,0.4,3.8,0.8L59.1,184.3L59.1,184.3z
				 M75.5,183.9c0,0,0.8-0.2,0.9-0.3c0.3-0.1,0.6-0.2,0.9-0.2c0.5-0.1,1.4-0.2,2-0.2c-0.2,0.2-0.5,0.3-0.9,0.3
				c-0.3,0-0.7,0.1-1.1,0.2c-0.3,0-0.7,0.2-1,0.3c-0.2,0.1-0.7,0.3-0.9,0.3L75.5,183.9L75.5,183.9z M56.8,183.1c0.2-0.3,1.1-1,1.7-1
				v0.7c0,0.1,0.5,0.6,0.5,0.9c-0.3-0.1-0.7-0.3-1-0.3C57.8,183.4,56.8,183.2,56.8,183.1L56.8,183.1z M76.2,182.1
				c0.6,0,1.4,0.6,1.7,1c-0.3,0-0.9,0.2-1.1,0.2c-0.3,0.1-0.9,0.3-1,0.3c0.1-0.3,0.5-0.8,0.5-0.9V182.1L76.2,182.1z M56,182.9
				c0.1,0,0.1,0.1,0.1,0.2l-0.3,0l-0.2,0l0.1-0.1L56,182.9L56,182.9z M78.8,182.9l0.1,0.1c-0.2,0-0.8,0.1-0.4-0.1L78.8,182.9
				L78.8,182.9z M75.2,184.7v0.2c0,0.1,0,0.1,0,0.2c0.4-0.2,1-0.5,1.4-0.6c0.5-0.1,1.1-0.4,1.7-0.4c0.1,0,0.1,0.2,0.1,0.3v0.1
				c0,0.2,0,0.4-0.1,0.5c0,0.1,0,0.2-0.1,0.2c0,0.1-0.1,0.2-0.1,0.2c0,0.1,0.2,0.4,0.2,0.8c0,0.3-0.1,0.6-0.2,0.7
				c-0.1,0-0.2-0.1-0.3-0.1c-0.1,0-0.2,0-0.3,0.1v0.4c0,0.4-0.4,0.6-0.7,0.7c0,0.1,0.1,0.1,0.1,0.2c0,0.1-0.1,0.2-0.2,0.2
				c0,0.1,0,0.1,0,0.1v0c0,0.1-0.1,0.2-0.2,0.2v0.1c0,0.1-0.1,0.1-0.2,0.1c-0.1,0-0.2,0-0.3-0.1c0,0.1,0,0.1,0,0.2v0.3
				c0,0.3-0.3,0.8-0.6,0.8v1l-0.1,0l-0.2,0.8c0,0.1,0.1,0.1,0.1,0.1v0c0,0.1-0.1,0.1-0.2,0.1l0,0.2l0.3,3.9h1.4l0,0.1l0,4.4
				l-7.9,0.1l-9.1,0l-1.9,0v-4.5l1.4,0l0.3-4.1c-0.1,0-0.2,0-0.2-0.1v0c0-0.1,0.1-0.1,0.1-0.2c0-0.2-0.2-0.6-0.2-0.8h-0.1v-1
				c-0.3-0.1-0.6-0.5-0.6-0.9l0-0.1l0-0.3c-0.1,0-0.2,0.1-0.3,0.1h0c-0.1,0-0.2-0.1-0.2-0.3l-0.2-0.1c0-0.5,0-0.1-0.2-0.4l0.1-0.2
				c-0.2-0.1-0.7-0.4-0.7-0.7v-0.4c-0.1,0-0.2-0.1-0.3-0.1c-0.2,0-0.2,0.1-0.4,0.1c-0.1-0.1-0.2-0.4-0.2-0.6v-0.2
				c0-0.1,0.2-0.6,0.2-0.7c-0.1-0.3-0.3-0.6-0.3-1c0-0.1,0.1-0.3,0.1-0.4c0.9,0,2.6,0.7,3.2,1c0-0.1,0-0.1,0-0.1v-0.4
				c0-0.4-0.1-0.7-0.2-1c-0.1-0.2-0.1-0.3-0.2-0.4c-0.1-0.1-0.2-0.3-0.3-0.4l1.2,0.1h0.4c0.7,0,1.2-0.1,1.8-0.2
				c0.6-0.1,1.1-0.2,1.6-0.3c0.3-0.1,0.5-0.1,0.8-0.2c0.3-0.1,0.5-0.1,0.8-0.2c0.5-0.1,1.2-0.2,1.8-0.2h0.2c0.7,0,1.2,0.1,1.8,0.1
				c0.5,0.1,1.2,0.2,1.6,0.4c0.2,0.1,0.5,0.1,0.8,0.2c0.2,0.1,0.5,0.1,0.8,0.2c0.5,0.1,1.2,0.2,1.8,0.2l1.1,0l0.8-0.1
				c0,0.1-0.4,0.6-0.4,0.8C75.3,184,75.2,184.2,75.2,184.7L75.2,184.7z M55.8,182.5c0-0.2,0.1-0.3,0.2-0.4H56c0,0.2,0.2,0.2,0.2,0.4
				c0,0.1-0.1,0.2-0.2,0.2h0C55.9,182.7,55.8,182.6,55.8,182.5L55.8,182.5L55.8,182.5z M78.5,182.6c-0.3,0-0.1-0.5,0.1-0.6
				c0.1,0.1,0.2,0.3,0.2,0.4v0C78.8,182.6,78.7,182.6,78.5,182.6L78.5,182.6L78.5,182.6z M74.7,181.8c0-0.1,0-0.2,0.1-0.2h0.2
				c0.1,0,0.1,0,0.1,0.1c0,0,0,0.1-0.1,0.1H74.7L74.7,181.8z M59.8,181.6c0,0,0.1,0.1,0.1,0.1c0,0,0,0.1-0.1,0.1h-0.3
				c-0.1,0-0.1-0.1-0.1-0.1c0,0,0.1-0.1,0.1-0.1L59.8,181.6L59.8,181.6z M59.7,182c1.2,0,2.7-0.3,3.7-0.6c0.9-0.3,2.4-0.7,3.6-0.7
				h0.5c1.2,0,2.5,0.4,3.4,0.7c0.8,0.2,2.4,0.7,3.4,0.7h1c0.1,0,0.2-0.4,0.7-0.4v1l-1.2,0.1l-0.1,0c-1.5,0-2.4-0.2-3.6-0.5
				c-0.2,0-0.6-0.2-0.8-0.2c-0.2-0.1-0.6-0.1-0.8-0.2c-0.6-0.1-1.1-0.2-1.8-0.2h-0.9c-1,0-2.4,0.4-3.2,0.6c-0.8,0.2-2.4,0.5-3.4,0.5
				h-0.2l-1.2-0.1l0-0.7l0-0.3c0.6,0,0.4,0.4,0.9,0.4H59.7L59.7,182z M74.7,181.2c0-0.1,0.1-0.3,0.2-0.5c0.2,0.1,0.4,0.7,0.1,0.7
				h-0.1C74.8,181.4,74.7,181.3,74.7,181.2L74.7,181.2L74.7,181.2z M59.4,181c0.1-0.1,0.1-0.3,0.2-0.3c0,0.1,0.2,0.3,0.2,0.5v0.1
				c0,0.1-0.1,0.2-0.2,0.2h-0.1c-0.1,0-0.1-0.2-0.2-0.2L59.4,181L59.4,181z M62.1,181.5c0.1-0.1,2-1.4,2.3-1.6
				c0.5-0.3,2-1.1,2.9-0.9c0.3,0,0.6,0,0.9,0.1c0.3,0.1,0.5,0.1,0.8,0.2c0.5,0.2,0.9,0.4,1.3,0.6c0.3,0.2,2.2,1.4,2.3,1.6
				c-0.5,0-1.9-0.5-2.4-0.6c-0.7-0.2-1.7-0.4-2.6-0.4h-0.2c-1,0-2,0.2-2.7,0.4C64,180.9,62.5,181.5,62.1,181.5L62.1,181.5z
				 M65.9,178.7c0-0.2,1-0.4,1.3-0.4c0.3,0,1.4,0.1,1.4,0.4v0c0,0,0,0.1-0.1,0.1l-0.9-0.1l-0.8,0l-0.8,0.1
				C66,178.8,65.9,178.8,65.9,178.7L65.9,178.7z M67,177.9c0.1,0,0.1,0,0.2,0l0.4,0l0.2,0.3l-0.3,0l-0.2,0l-0.6,0L67,177.9L67,177.9
				z M66.7,177.9c0,0-0.1,0.1-0.1,0.1c-0.1,0-0.1-0.2-0.1-0.3C66.5,177.8,66.7,177.8,66.7,177.9L66.7,177.9z M66.5,177.3
				c0-0.2,0.3-0.4,0.6-0.4h0.4c0.2,0,0.5,0.2,0.5,0.3v0.1c0,0.2-0.4,0.4-0.6,0.4H67C66.8,177.7,66.5,177.5,66.5,177.3L66.5,177.3z
				 M67,176.8c-0.1,0-0.1,0-0.1-0.1c0,0,0-0.1,0.1-0.1h0.6c0.1,0,0.1,0,0.1,0.1c-0.1,0-0.1,0.1-0.2,0.1H67L67,176.8z M66.8,176
				c0-0.2,0.2-0.3,0.4-0.3h0.3c0.1,0,0.3,0.2,0.3,0.3v0c0,0.3-0.3,0.4-0.5,0.4C67,176.4,66.8,176.2,66.8,176L66.8,176L66.8,176z
				 M66,175.7l0.6,0c0,0.1-0.1,0.2-0.1,0.4c0,0.1,0.1,0.4,0.2,0.4c0,0.1-0.1,0.1-0.1,0.2c0,0.1,0,0,0,0.1c-0.3,0.1-0.2,0.1-0.3,0.3
				L66,175.7L66,175.7z M67.1,175.4C67.1,175.3,67.1,175.3,67.1,175.4l0.4-0.1c0.1,0,0.1,0,0.1,0.1c0,0.1-0.1,0.1-0.2,0.1
				C67.2,175.5,67.1,175.5,67.1,175.4L67.1,175.4z M67.1,174.9c0,0,0.1-0.3,0.2-0.3c0,0,0.2,0.2,0.2,0.4c0,0.1,0,0.1-0.1,0.2
				c-0.1,0-0.1,0-0.2,0C67.1,175.2,67.1,175,67.1,174.9L67.1,174.9L67.1,174.9z M66.1,174.7v0.2c0,0.1-0.1,0.3-0.2,0.4l-0.3-1.3
				l0.1,0C65.9,174.3,66.1,174.4,66.1,174.7L66.1,174.7z M66.3,175.4c0-0.1,0.1-0.3,0.1-0.6c0-0.5-0.2-0.6-0.3-0.9l0.3,0l0.1,0
				c1.1,0,1.6,0.8,2.7,0.8c0.1,0,0.1,0,0.2,0c-0.2,0.1-0.4,0.2-0.6,0.2c-0.2,0-0.6-0.1-0.8-0.1c0,0.4,0.5,0.7,0.9,0.7
				c-0.2,0.2-0.7,0.1-1.1,0.1c-0.1-0.1-0.3-0.4-0.3-0.5c0-0.1,0.1,0,0.1-0.1V175c0-0.2-0.3-0.8-0.5-0.9c-0.1,0.3-0.4,0.4-0.4,0.9
				c0,0.1,0.1,0.1,0.1,0.2c0,0.1-0.1,0-0.1,0.1v0.1C66.7,175.5,66.3,175.5,66.3,175.4L66.3,175.4z M66.3,178.3
				c-0.3,0-0.6,0.2-0.7,0.5l0.1,0.1v0.1c-0.5,0-2.3,1.2-2.7,1.5c-0.4,0.3-0.8,0.6-1.2,0.9c-0.4,0.3-1,0.5-1.7,0.5
				c0-0.1-0.1-0.2-0.1-0.2c0,0,0.1-0.1,0.1-0.3c0-0.2-0.3-0.7-0.4-0.9c-0.1,0.1-0.5,0.7-0.5,0.9c0,0.1,0.1,0.2,0.1,0.3l0,0.1
				c-0.2,0-0.4-0.3-0.7-0.3c-0.1,0-0.1,0-0.2,0v0.6c-0.3,0-0.9,0.3-1.1,0.4c-0.1,0.1-0.3,0.2-0.4,0.3c-0.1,0.1-0.3,0.3-0.4,0.4
				c0,0-0.1-0.2-0.1-0.2c0-0.1,0.1-0.1,0.1-0.3v-0.1c0-0.3-0.3-0.6-0.4-0.8c-0.1,0.1-0.4,0.6-0.4,0.8l0,0l0,0.3
				c0,0.1-0.2,0.3-0.2,0.3h-0.6v1.1l0.2,0l1,0.1c0,0.2-0.1,0.3-0.1,0.5c0,0.3,0.1,0.7,0.2,0.9c0,0.2-0.2,0.4-0.2,0.7v0.1
				c0,0.3,0.3,1.1,0.4,1.1c0.1,0,0.2-0.1,0.4-0.1c0,0.4,0.3,0.9,0.7,1v0.2c0,0.1,0.1,0.2,0.2,0.2v0.2c0.1,0.2,0.1,0.1,0.2,0.3
				c0,0.1,0.2,0.3,0.3,0.3h0.1v0.1c0,0.4,0.3,0.9,0.6,1v1H59c0.1,0,0.2,0.5,0.2,0.6c0,0-0.1,0.1-0.1,0.2v0.1c0,0.2,0.1,0.2,0.2,0.3
				l-0.2,3.6H59c0-0.2-0.1-0.3-0.1-0.4c0-0.1,0.1-0.1,0.1-0.1v-0.1c0-0.1-0.1-0.1-0.1-0.1c0,0,0.1-0.1,0.1-0.2
				c0-0.7-1.1-0.5-1.1-0.1c0,0.2,0.1,0.3,0.1,0.3c0,0-0.1,0.1-0.1,0.1c0,0.1,0,0.1,0.1,0.1c-0.1,0.2-0.2,0.2-0.2,0.5
				c0,0.2,0,0.5,0,0.7c0,0.5,0,0.9,0,1.4c0,0.9,0,1.9,0,2.7c-0.2,0-0.5,0.1-0.5,0.3v0.1c0,0.3,0.3,0.3,0.6,0.3h8.8
				c1.8,0,3.8,0,5.7,0c1,0,1.9,0,2.9,0c0.5,0,0.9,0,1.4,0c0.5,0,1.1,0.1,1.1-0.4v0c0-0.3-0.2-0.4-0.5-0.4v-2.2c0-0.4,0-1.1,0-1.6
				c0-0.3,0-0.6,0-0.8c0-0.5,0-0.3-0.2-0.6c0,0,0,0,0-0.1v-0.1c0-0.1-0.1-0.1-0.1-0.1c0-0.1,0.1,0,0.1-0.1v-0.1
				c0-0.2-0.3-0.4-0.6-0.4c-0.2,0-0.5,0.2-0.5,0.4c0,0.1,0,0.2,0.1,0.2c0,0.1-0.1,0.1-0.1,0.2c0,0.1,0.1,0,0.1,0.1
				c0,0-0.1,0.2-0.1,0.5l-0.2,0l-0.2-3.6c0.1,0,0.2-0.1,0.2-0.3v0c0-0.1-0.1-0.2-0.1-0.2c0-0.1,0.1-0.6,0.2-0.6l0.1,0l0-0.4v-0.6
				c0.4-0.1,0.7-0.6,0.7-1.1h0.1c0.2,0,0.4-0.2,0.4-0.4c0.1,0,0.2-0.1,0.2-0.3v-0.1c0.1,0,0.2-0.1,0.2-0.3v-0.1
				c0.3-0.1,0.6-0.6,0.7-1h0.1c0.2,0,0.2,0.1,0.4,0.1c0.1-0.2,0.3-0.5,0.4-0.8c0-0.3,0-0.3,0-0.5c0-0.1-0.1-0.4-0.1-0.4
				c0-0.1,0.2-0.5,0.2-0.9v-0.1c0-0.5-0.4-0.3,0.3-0.5c0.2,0,0.8,0.1,0.8-0.1l0-1l-0.7,0l-0.2-0.3c0-0.1,0.1-0.1,0.1-0.3
				c0-0.3-0.4-0.6-0.4-0.8h-0.1c-0.1,0.2-0.4,0.5-0.4,0.8v0c0,0.2,0.1,0.3,0.1,0.3c0,0-0.1,0.2-0.1,0.2c0,0-1.2-1.1-2-1.1v-0.6
				c-0.1,0-0.1,0-0.2,0c-0.3,0-0.5,0.2-0.7,0.3c0-0.3,0.3-0.3,0-0.7c0-0.1-0.4-0.5-0.4-0.6c-0.1,0.2-0.4,0.7-0.4,0.9
				c0,0.2,0.1,0.3,0.1,0.4c0,0.1-0.1,0.2-0.2,0.2h-0.1c-1.2,0-2.1-0.8-2.8-1.3c-0.4-0.3-2.2-1.4-2.7-1.5c0-0.1,0.1-0.1,0.1-0.2v0
				c0-0.2-0.3-0.4-0.5-0.4c-0.1,0-0.5-0.3-0.5-0.4c0-0.1,0.4-0.1,0.4-0.5c0-0.2-0.2-0.5-0.4-0.6v-0.2c0-0.1-0.1-0.1-0.1-0.1
				c0,0,0.2-0.1,0.2-0.4v-0.1h0.4c0.5,0,1.2-0.4,1.3-0.8c-0.2,0.1-0.4,0.2-0.7,0.2h-0.1c-0.1,0-0.3-0.1-0.4-0.2
				c0.7,0,1.4-0.3,1.4-0.9c-0.2,0.1-0.3,0.2-0.7,0.2h-0.2c-0.2,0-1-0.3-1.2-0.4c-0.3-0.1-0.8-0.4-1.2-0.4h-0.4
				c-0.3,0-0.5,0.1-0.7,0.1l0-0.3c-0.4,0.1-0.2,0-0.2,0.4c0,0.1,0.1,0.4,0.1,0.6c0.1,0.3,0.2,0.9,0.3,1.2c0,0.3,0.2,0.9,0.2,1.2
				C66.1,177.4,66.3,178,66.3,178.3L66.3,178.3z"/>
			<path class="st3" d="M73.8,198.6h0.5v0.7c0,0.3-0.1,0.4-0.3,0.4h0c-0.1,0-0.1-0.1-0.1-0.2V198.6L73.8,198.6z M60.8,199.5
				c0-0.2,0.2-0.3,0.3-0.3h0.1c0.2,0,0.3,0.1,0.5,0.2v0.1c-0.2,0-0.5,0.3-0.7,0.3h-0.1C60.8,199.7,60.8,199.6,60.8,199.5L60.8,199.5
				L60.8,199.5z M64.9,198.6h0.7v0.7h-0.7V198.6L64.9,198.6z M59.8,198.6h1.9v0.6l-0.4-0.3l-0.3,0c-0.3,0-0.6,0.2-0.6,0.5
				c-0.1,0-0.1,0-0.2,0h-0.4V198.6L59.8,198.6z M72.1,199.1l-0.2-0.5l0.6,0v0.7c0,0.1-0.5,0.3-0.6,0.3h-0.1c-0.1,0-0.1-0.1-0.1-0.1
				C71.6,199.2,71.9,199.4,72.1,199.1L72.1,199.1z M63.7,198.1c0-0.2,0.1-0.4,0.3-0.4h0.2c0.3,0,0.7,0.4,0.8,0.4
				c0,0,0.1-0.1,0.1-0.1c-0.2-0.2-0.7-0.6-1.1-0.6h-0.1c-0.2,0-0.5,0.2-0.5,0.4v0.1c0,0.2,0.1,0.2,0.1,0.4h-4.8
				c0,0.1,0.2,0.3,0.3,0.3h0.5v0.7l-0.2-0.1c-0.1,0-0.1,0.1-0.1,0.1v0c0,0.3,0.8,1,0.8,1.2l0.2-0.1l-0.5-0.6l0.3-0.3
				c0.1,0.1,0.2,0.2,0.3,0.2h0.1l0.3,0c0.1,0.2,0.2,0.2,0.4,0.4c0.2,0,0.2,0.1,0.4,0c0.2,0,0.2-0.1,0.3-0.2v0.3l0.4,0.2l0-1.8h0.5
				v1.5c0,0.1,0.3,0.3,0.4,0.3v-1.8h0.5v1.5c0,0.1,0.3,0.3,0.4,0.3v-1.8h0.7v0.7h-0.1c-0.1,0-0.1,0-0.1,0.1v0.1
				c0,0.1,0.3,0.5,0.4,0.5h0c0.1,0,0.1,0,0.1-0.1v-0.2h0.6v0.4c0,0.1,0.3,0.2,0.4,0.3v-1.8h1.4v0.4h-0.9c-0.1,0-0.1,0-0.1,0.1
				c0,0.1,0.3,0.5,0.4,0.5h0.1c0-0.1,0-0.1,0-0.1v-0.1h0.5v0.8c0,0.1,0.3,0.3,0.4,0.3v-1.8h0.5v1.5c0,0.1,0.3,0.3,0.4,0.3v-1.8h0.9
				v0.6l-0.4-0.1c0,0.1-0.1,0.1-0.1,0.1c0,0.2,0.8,1,0.9,1.2h0.1l0.1-0.2l0,0l-0.5-0.6c0.1-0.1,0.3-0.2,0.3-0.3v-0.8h0.7v1.6
				l0.4,0.2l0-1.8h0.9c0,0.1,0.1,0.2,0.1,0.2c0,0.1-0.4,0.2-0.5,0.2c0,0.3,0.4,0.9,0.6,0.9h0.3c0.1,0,0.3-0.1,0.4-0.1v0.3l0.4,0.3
				l0-1.8h0.5v0.7c0,0.3,0.4,0.7,0.7,0.7h0.1c0.2,0,0.4-0.2,0.4-0.4v-1h0.5v1.5c0,0.1,0.3,0.3,0.4,0.3v-1.8h0.5
				c0-0.1-0.2-0.3-0.2-0.3h-12V198.1L63.7,198.1z"/>
			<path class="st4" d="M63.9,193.1h-0.7c0,2.3,1.8,4.1,4.1,4.1c2.3,0,4.1-1.8,4.1-4.1h-0.7c0,1.9-1.5,3.5-3.5,3.5
				C65.4,196.5,63.9,195,63.9,193.1L63.9,193.1z"/>
			<polygon class="st4" points="70.8,183.9 71.4,183.9 71.4,193.1 70.8,193.1 70.8,183.9 			"/>
			<polygon class="st4" points="63.2,183.9 63.9,183.9 63.9,193.1 63.2,193.1 63.2,183.9 			"/>
			<path class="st3" d="M67.3,187c1.6,0,2.9,1.3,2.9,2.9s-1.3,2.9-2.9,2.9c-1.6,0-2.9-1.3-2.9-2.9S65.7,187,67.3,187L67.3,187z"/>
		</g>
		<g>
			<path class="st0" d="M81.4,181.6c0,0.2-0.1,0.4-0.3,0.6c-0.2,0.2-0.4,0.3-0.6,0.3c-0.2,0-0.4-0.1-0.6-0.3
				c-0.2-0.2-0.3-0.4-0.3-0.6c0-0.2,0.1-0.4,0.3-0.6c0.2-0.2,0.4-0.3,0.6-0.3c0.2,0,0.4,0.1,0.6,0.3
				C81.3,181.2,81.4,181.4,81.4,181.6z M81.3,181.6c0-0.2-0.1-0.4-0.2-0.5c-0.1-0.1-0.3-0.2-0.5-0.2c-0.2,0-0.4,0.1-0.5,0.2
				c-0.1,0.1-0.2,0.3-0.2,0.5c0,0.2,0.1,0.4,0.2,0.5c0.1,0.1,0.3,0.2,0.5,0.2c0.2,0,0.4-0.1,0.5-0.2C81.2,182,81.3,181.8,81.3,181.6
				z M81.1,182.1h-0.2l-0.3-0.4h-0.2v0.4h-0.2v-0.9h0.3c0.1,0,0.1,0,0.2,0c0,0,0.1,0,0.1,0c0,0,0.1,0.1,0.1,0.1c0,0,0,0.1,0,0.1
				c0,0.1,0,0.1-0.1,0.2c0,0-0.1,0.1-0.2,0.1L81.1,182.1z M80.7,181.4C80.7,181.4,80.7,181.4,80.7,181.4c0-0.1,0-0.1-0.1-0.1
				c0,0,0,0-0.1,0c0,0-0.1,0-0.1,0h-0.2v0.3h0.1c0,0,0.1,0,0.1,0c0,0,0.1,0,0.1,0C80.7,181.5,80.7,181.5,80.7,181.4
				C80.7,181.5,80.7,181.4,80.7,181.4z"/>
		</g>
	</g>
	<path class="st5" d="M415.3,150.4c-72.5-8.7-110.6-35.1-183-35.1c-63.8,0-94.2,17.8-217.7,32.8c0,0,166.6,11.1,215.4,11.1
		S415.3,150.4,415.3,150.4z"/>
	<path class="st6" d="M128.5,125.1c38.6-7.5,71.9-14,103.8-14c41.3,0,71.4,8.5,103.2,17.5c1.8,0.5,3.6,1,5.4,1.5c0-4.7,0-7.9,0-9.6
		c0-0.2,0-0.4,0-0.6c0-0.4-0.2-0.6-0.6-0.6c-0.2,0-0.5,0-0.7,0c-1,0-2,0-2.9,0c-0.5,0-1,0-1.5,0c-0.5,0-0.9-0.4-0.9-0.9
		c0-0.3,0-0.5-0.1-0.8c-0.2-0.6-0.3-1.2-0.2-1.9c0.1-0.3,0.1-0.7-0.1-1c-0.1-0.3-0.2-0.7-0.1-1c0.1-0.2,0-0.4-0.2-0.5
		c-0.1-0.1-0.3-0.2-0.3-0.4c0-0.1,0.1-0.3,0.3-0.4c0.2-0.2,0.2-0.4,0.2-0.6c0-0.1-0.1-0.3-0.1-0.4c0-0.2,0.1-0.2,0.3-0.2
		c0.1,0,0.2,0.1,0.4,0.1c0.4,0.1,0.8-0.1,0.8-0.5c0-0.2,0-0.4-0.1-0.6c-0.1-0.2-0.1-0.5-0.1-0.7c0.1-0.4,0.1-0.8,0-1.2
		c-0.1-0.5,0-0.8,0.3-1.2c0.3-0.3,0.2-0.6,0-0.9c-0.3-0.5-0.4-1-0.4-1.6c0-0.4,0-0.8,0-1.2c0-0.3,0.1-0.7,0.3-0.9
		c0.3-0.3,0.2-0.5,0.1-0.9c-0.4-0.8-0.4-0.9-0.4-1.7c0-0.3,0.1-0.7,0-1c-0.1-0.5,0-0.8,0.3-1.2c0.2-0.3,0.3-0.5,0.1-0.8
		c-0.4-0.5-0.4-1.1-0.4-1.7c0-0.5,0.1-1,0-1.5c0-0.5,0-0.9,0.4-1.3c0.2-0.2,0.2-0.5,0-0.7c-0.4-0.5-0.4-1.1-0.4-1.7
		c0-0.5,0.1-1.1,0-1.6c0-0.5,0-0.8,0.3-1.2c0.2-0.2,0.2-0.5,0-0.7c-0.3-0.5-0.4-1-0.4-1.6c0-0.6,0-1.2,0-1.8c0-0.4,0.1-0.8,0.4-1.2
		c0.2-0.2,0.2-0.4,0.1-0.6c-0.1-0.2-0.1-0.4-0.1-0.7c0.1-0.4-0.1-0.7-0.2-1c-0.1-0.4-0.3-0.5-0.6-0.5c-0.7,0-0.7,0-0.7-0.8
		c0-0.2,0-0.3,0-0.5c0-0.4,0.1-0.7,0.5-0.8c0.4-0.1,0.6-0.4,0.5-0.8c-0.2-1,0-1.9,0-2.9c0-0.7,0.2-1.4,0-2.1
		c-0.1-0.5-0.2-0.9-0.3-1.4c0-0.3-0.1-0.7-0.3-0.9c-0.2-0.2-0.2-0.4-0.2-0.6c-0.1-1-0.3-1.9-0.6-2.8c0-0.1-0.1-0.3-0.2-0.3
		c-0.3-0.2-0.4-0.6-0.6-0.9c-0.1-0.2-0.2-0.4-0.5-0.5c-0.3-0.1-0.3-0.3-0.4-0.5c-0.1-0.3-0.1-0.6-0.2-0.9c-0.2-0.7-0.3-1.5-0.9-2
		c-0.1-0.1-0.2-0.3-0.2-0.4c-0.5-0.9-0.7-1.9-1-2.9c-0.1-0.3-0.2-0.6-0.5-0.8c-0.3-0.2-0.4-0.4-0.5-0.7c0-0.2-0.2-0.4-0.2-0.5
		c-0.3-0.6-0.9-1.2-0.8-2c0-0.1-0.1-0.3-0.2-0.4c-0.2-0.6-0.5-1.1-0.5-1.8c0-0.5-0.2-0.7-0.6-0.9c-0.5-0.3-0.8-0.6-0.9-1.2
		c0-0.1-0.1-0.3-0.2-0.3c-0.3-0.4-0.4-1-0.8-1.4c-0.1-0.1-0.1-0.2-0.1-0.4c0-0.7-0.3-1.3-0.4-2c-0.1-0.9-0.3-1.8-0.6-2.7
		c-0.2-0.4-0.3-0.9-0.4-1.3c0-0.1-0.1-0.3,0-0.4c0.3-0.4,0.2-0.8,0.3-1.2c0-0.1,0-0.3,0.1-0.4c0.4-0.4,0.3-0.9,0.3-1.4
		c0-0.3-0.1-0.6-0.4-0.7c-0.2-0.1-0.4-0.2-0.3-0.4c0-0.5-0.2-1.1,0.2-1.6c0.1-0.2,0-0.3,0-0.4c-0.3-0.7-0.3-1.4,0-2.1
		c0.1-0.2,0.1-0.3,0-0.5c-0.4-0.7-0.4-1.4,0-2.1c0.1-0.2,0-0.3,0-0.4c-0.3-0.7-0.3-1.4,0-2.1c0.1-0.2,0.1-0.3,0-0.5
		c-0.3-0.7-0.3-1.4,0-2.1c0.1-0.2,0-0.3,0-0.4c-0.3-0.7-0.3-1.4,0-2.1c0.1-0.2,0.1-0.3,0-0.5c-0.3-0.7-0.3-1.4,0-2.1
		c0.1-0.1,0.1-0.2,0-0.4c-0.4-0.5-0.2-1-0.2-1.5c0-0.4,0.1-0.5,0.4-0.5c0.2,0,0.4,0,0.6,0c0.3,0,0.5-0.2,0.5-0.6
		c0-0.2-0.1-0.3-0.5-0.4c-0.2,0-0.4,0-0.6-0.1c-0.2-0.2,0-0.4,0-0.5c0.1-0.4-0.1-0.6-0.3-0.9c-0.3,0-0.7,0-1,0
		c-0.3,0.2-0.4,0.6-0.4,0.9c0,0.5,0,0.6-0.5,0.6c-0.3,0-0.6,0.1-0.7,0.4c0,0,0,0.1-0.1,0.1c-0.6,0.5-1.4,0.6-2.1,0.9
		c-1.1-0.2-2,0.5-2.8,1.1c-0.1,0-0.1,0.2-0.1,0.3c0,0.1,0.1,0.2,0.2,0.2c0.5,0,0.9-0.1,1.4,0c0.4,0.1,0.8,0.1,1.1-0.2
		c0.2-0.2,0.4-0.1,0.5,0.1c0.1,0.1,0.2,0.2,0.3,0.3c-0.3,0.3-0.6,0.6-1.1,0.3c-0.1-0.1-0.3,0-0.4,0c-0.4,0-0.6,0.4-0.9,0.5
		c-0.4,0-0.8-0.1-1.1,0.1c0,0-0.1,0-0.1,0c-0.3,0.2-0.5,0.3-0.9,0.2c-0.2-0.1-0.5,0.2-0.4,0.5c0,0.2,0.2,0.5,0.5,0.4
		c0.6-0.2,1.1,0,1.6,0.3c0.4,0.2,0.7,0.2,1.1-0.1c0.4-0.4,0.8-0.5,1.3-0.2c0.3,0.2,0.6,0.3,0.9,0.2c0.3-0.1,0.5-0.1,0.7,0.1
		c0.4,0.2,0.8,0.2,1.2,0.1c0.2-0.1,0.4-0.1,0.6-0.1c0.1,0,0.2,0,0.2,0.2c0.1,0.9,0.3,1.7,0,2.6c0,0.1,0,0.2,0,0.4
		c0.2,0.7,0.2,1.5,0,2.2c0,0.1,0,0.2,0,0.4c0.2,0.7,0.2,1.3,0,2c0,0.2-0.1,0.3,0,0.5c0.2,0.3,0.1,0.7,0.1,1.1c0,0.4-0.2,0.8-0.1,1.2
		c0,0.4,0.1,0.8,0.1,1.2c0,0.5-0.1,0.9-0.1,1.3c0,0.4,0.2,0.9,0.1,1.3c0,0.2,0,0.4,0,0.6c0,0.2-0.3,0.4-0.5,0.3
		c-0.4-0.1-0.7-0.3-1.1-0.4c-0.3-0.1-0.6-0.3-0.7-0.7c-0.2-0.5-0.5-0.8-1.1-0.8c-0.1,0-0.3,0-0.3-0.2c0.6-0.6,0.5-1.4,0.2-2
		c-0.4-0.8-0.4-1.5,0-2.2c0.2-0.3,0.1-0.6-0.1-0.9c-0.1-0.1-0.1-0.2-0.2-0.2c-0.2-0.3-0.3-0.7,0-1c0.1-0.2,0.2-0.4,0.2-0.5
		c0-0.2,0.1-0.4,0-0.5c-0.3-0.3-0.3-0.8-0.5-1.1c-0.3-0.5-0.5-1-0.5-1.6c0-0.1-0.1-0.2-0.2-0.3c-0.3-0.1-0.6,0-0.6,0.3
		c-0.1,0.8-0.6,1.5-0.7,2.3c-0.5,0.5-0.4,1-0.1,1.5c0.2,0.3,0.1,0.6-0.1,0.8c-0.5,0.6-0.4,1.2-0.1,1.8c0.3,0.5,0.2,1-0.1,1.4
		c-0.2,0.3-0.3,0.6-0.3,0.9c0,0.5,0.1,0.9,0.4,1.3c0.1,0.1,0.1,0.2,0.1,0.3c-0.2,0.1-0.4,0.1-0.6,0.1c-0.4,0.1-0.8,0.3-0.9,0.7
		c-0.2,0.6-0.5,0.8-1.1,0.9c-0.4,0.1-0.7,0.3-1,0.5c-0.3,0.2-0.5,0.6-0.4,0.9c0.1,0.5-0.1,0.9-0.2,1.3c-0.6,1.3-1,2.7-1.4,4.1
		c-0.3,1.1-0.5,2.2-0.6,3.3c0,0.3-0.1,0.6-0.3,0.8c-0.4,0.5-0.7,1-0.8,1.6c-0.1,0.5-0.4,0.9-0.8,1.1c-0.1,0.1-0.2,0.1-0.3,0.2
		c-0.2,0.2-0.4,0.4-0.4,0.7c0.1,0.2,0,0.4-0.1,0.7c-0.2,0.7-0.5,1.4-0.6,2.2c0,0.3-0.2,0.6-0.4,0.9c-0.2,0.3-0.4,0.6-0.5,0.9
		c-0.1,0.4-0.3,0.8-0.7,1c-0.2,0.1-0.3,0.4-0.3,0.6c-0.2,0.6-0.3,1.2-0.5,1.8c-0.3,0.7-0.4,1.5-1.1,2c-0.1,0.1-0.1,0.2-0.2,0.3
		c-0.2,0.7-0.5,1.3-0.5,2c0,0.3-0.1,0.5-0.5,0.6c-0.3,0.1-0.4,0.4-0.4,0.6c-0.1,0.3-0.2,0.5-0.4,0.6c-0.2,0.1-0.3,0.3-0.3,0.6
		c-0.1,1-0.5,1.9-0.4,2.9c0,0.2-0.1,0.4-0.3,0.6c-0.4-0.2-0.9-0.4-0.9-1c0-0.2-0.1-0.3-0.2-0.4c-0.4-0.5-0.6-1-0.7-1.6
		c-0.1-0.3-0.2-0.7-0.3-1c-0.1-0.2-0.2-0.5-0.2-0.8c0-0.4-0.1-0.6-0.5-0.8c-0.4-0.2-0.6-0.5-0.7-1c-0.2-0.5-0.3-0.9-0.6-1.3
		c-0.3-0.3-0.3-0.7-0.4-1.1c-0.3-1.3-0.5-2.6-1-3.9c-0.2-0.4-0.3-0.9,0-1.3c0.1-0.1,0.1-0.3,0.1-0.4c0-0.3,0-0.5,0.1-0.8
		c0.1-0.3,0.1-0.6,0.2-0.8c0-0.3,0-0.5-0.3-0.6c-0.3-0.1-0.3-0.4-0.4-0.6c0-0.5,0.1-0.9,0.1-1.4c0-0.5-0.1-1-0.1-1.4
		c0-0.1,0-0.2,0-0.3c0.1-0.3,0.1-0.6,0-0.9c-0.1-0.5,0-1,0.1-1.5c0.1-0.5-0.2-1.1-0.1-1.6c0.1-0.4,0.1-0.7,0-1.1
		c-0.1-0.5,0.1-1.1,0.1-1.6c0-0.5-0.2-1.1-0.1-1.6c0.1-0.4,0.1-0.7,0-1c-0.1-0.5,0-1,0.1-1.5c0-0.5-0.2-1.1-0.1-1.6
		c0-0.2,0.1-0.3,0.3-0.3c0.2,0,0.3,0,0.5,0c0.2,0,0.3-0.2,0.3-0.4c0-0.4,0-0.5-0.5-0.6c-0.1,0-0.3,0-0.4-0.1
		c0.1-0.5,0.1-0.9-0.2-1.3c-0.1-0.1-0.1-0.3-0.1-0.5c0-0.2-0.1-0.3-0.3-0.3c-0.2,0-0.3,0.1-0.4,0.2c-0.1,0.5-0.4,0.9-0.4,1.4
		c0,0.4-0.1,0.5-0.5,0.5c-0.2,0-0.3,0.1-0.4,0.2c-0.1,0.4-0.4,0.5-0.8,0.6c-0.6,0.1-1.1,0.4-1.7,0.3c-0.1,0-0.3,0-0.4,0.1
		c-0.5,0.3-1,0.6-1.4,0.8c-0.1,0.1-0.1,0.2-0.1,0.3c0,0.1,0.1,0.2,0.2,0.2c0.7-0.1,1.5,0.2,2.2,0c0.1,0,0.1,0,0.2,0
		c0,0,0.1,0.1,0.1,0.1c0,0.1,0,0.1-0.1,0.2c-0.1,0.1-0.2,0.1-0.3,0.1c-0.5,0-1-0.1-1.4,0.3c-0.1,0.1-0.2,0.1-0.3,0
		c-0.4-0.1-0.7,0-1,0.2c-0.2,0.2-0.4,0.1-0.6,0.1c-0.2-0.1-0.4,0.1-0.5,0.4c0,0.2,0.2,0.5,0.4,0.4c0.5-0.1,1,0.1,1.4,0.3
		c0.3,0.2,0.6,0.1,0.8,0c0.1-0.1,0.2-0.1,0.3-0.2c0.2-0.1,0.4-0.1,0.6,0c0.2,0.1,0.5,0.3,0.7,0.3c0.5-0.1,0.9-0.1,1.3,0.2
		c0.1,0.1,0.3,0,0.5,0c0.2,0,0.3-0.1,0.5-0.1c0.1,0,0.2,0,0.3,0.2c0.3,1.1-0.1,2.1,0.1,3.2c0,0.3,0,0.6,0,0.9c0,0.1-0.1,0.1-0.1,0.2
		c0,0.1,0,0.3,0,0.4c0.2,0.6,0.1,1.2,0,1.8c0,0.6,0.1,1.3,0,1.9c0,0,0,0.1,0,0.1c-0.1,0.2,0,0.4,0,0.6c0.1,0.6,0,1.2,0,1.7
		c0,0.6,0.1,1.2,0.1,1.8c0,0.1-0.1,0.3-0.3,0.2c-0.3-0.2-0.7-0.3-1-0.4c-0.2-0.1-0.5-0.2-0.6-0.5c-0.1-0.2-0.1-0.5-0.3-0.6
		c-0.2-0.1-0.5-0.2-0.7-0.3c0-0.1,0-0.2,0-0.2c0.2-0.7,0.3-1.3-0.1-2c-0.2-0.3-0.2-0.6-0.1-0.9c0-0.2,0.1-0.4,0.2-0.5
		c0.2-0.3,0.1-0.6-0.1-0.8c-0.3-0.3-0.4-0.7-0.2-1.1c0.2-0.4,0.1-0.8,0-1.2c-0.2-0.7-0.6-1.3-0.7-2c0-0.2-0.2-0.2-0.4-0.2
		c-0.1,0-0.3,0-0.3,0.2c-0.1,0.8-0.5,1.5-0.8,2.2c-0.1,0.3-0.2,0.6,0,0.9c0.2,0.4,0.2,0.9-0.1,1.3c-0.2,0.3-0.3,0.5-0.1,0.8
		c0.1,0.1,0.1,0.3,0.2,0.5c0.1,0.4,0.1,0.8-0.1,1.1c-0.3,0.5-0.2,1.1-0.1,1.6c0,0.2,0.3,0.3,0.2,0.5c-0.4,0-0.8,0-1,0.4
		c-0.3,0.5-0.6,0.9-1.2,1c-0.1,0-0.2,0.1-0.3,0.1c-0.5,0.2-0.8,0.6-0.7,1.1c0,0.3,0,0.6-0.2,0.9c-0.8,1.8-1.3,3.8-1.7,5.7
		c-0.1,0.5-0.2,1.1-0.6,1.5c-0.2,0.3-0.4,0.7-0.5,1.2c-0.1,0.4-0.3,0.7-0.6,0.8c-0.3,0.1-0.4,0.3-0.5,0.5c-0.2,0.7-0.4,1.5-0.6,2.3
		c-0.3,1-0.6,2-1.4,2.7c-0.2,0.1-0.2,0.3-0.2,0.5c-0.2,0.8-0.5,1.5-0.7,2.3c-0.1,0.2-0.1,0.4-0.3,0.5c-0.4,0.2-0.5,0.5-0.5,0.9
		c-0.1,0.3-0.2,0.6-0.3,0.8c-0.1,0.5-0.2,1-0.7,1.2c-0.1,0.1-0.2,0.3-0.3,0.5c-0.1,0.3-0.3,0.5-0.7,0.7c-0.2-0.4-0.3-0.8-0.4-1.3
		c-0.1-0.3-0.1-0.7-0.4-1c-0.6-0.6-0.7-1.4-1.2-2c-0.1-0.1-0.1-0.2-0.1-0.4c0-0.4-0.2-0.7-0.3-1c-0.1-0.4-0.3-0.8-0.4-1.2
		c-0.1-0.4-0.2-0.7-0.6-0.8c-0.3-0.1-0.5-0.4-0.6-0.7c-0.2-0.6-0.4-1.1-0.7-1.6c-0.1-0.2-0.2-0.3-0.2-0.5c-0.2-1.5-0.6-3-1.1-4.4
		c-0.1-0.4-0.3-0.8,0-1.2c0.1-0.1,0-0.3,0-0.5c0-0.2-0.1-0.3,0.1-0.5c0.3-0.4,0.2-0.9,0.2-1.3c0-0.2-0.1-0.3-0.2-0.4
		c-0.2-0.1-0.3-0.2-0.3-0.5c-0.1-0.5,0.1-1,0.1-1.5c0-0.5-0.2-1-0.1-1.5c0-0.1,0-0.1,0.1-0.2c0.1-0.3,0.1-0.5,0-0.8
		c-0.1-0.4-0.1-0.8-0.1-1.2c0-0.4,0.2-0.8,0-1.2c-0.1-0.4-0.1-0.8,0-1.2c0.1-0.3,0.1-0.5,0-0.8c-0.1-0.5-0.1-1,0-1.4
		c0.1-0.3,0.1-0.5,0-0.8c-0.1-0.4-0.1-0.8-0.1-1.2c0.1-0.4,0.1-0.8,0-1.2c-0.1-0.4-0.1-0.8,0-1.2c0.1-0.3,0.1-0.6,0-0.9
		c-0.1-0.2-0.1-0.4-0.1-0.6c0-0.8,0-0.8,0.7-0.8c0.1,0,0.2,0,0.3,0c0.2-0.1,0.3-0.3,0.3-0.5c0-0.2-0.1-0.4-0.3-0.4
		c-0.1,0-0.3,0-0.4,0c-0.1,0-0.3-0.1-0.2-0.3c0.1-0.6-0.4-1-0.4-1.6c0-0.2-0.2-0.2-0.4-0.2c-0.2,0-0.4,0-0.4,0.2
		c0,0.4-0.3,0.7-0.3,1.1c-0.1,0.5,0,0.9-0.7,0.8c-0.1,0-0.2,0.2-0.2,0.3c-0.1,0.3-0.3,0.4-0.6,0.5c-0.7,0.1-1.3,0.5-2,0.4
		c-0.1,0-0.3,0.1-0.4,0.1c-0.5,0.3-0.9,0.5-1.4,0.8c-0.1,0.1-0.2,0.2-0.1,0.3c0.1,0.1,0.2,0.2,0.3,0.1c0.4-0.1,0.8-0.1,1.1,0
		c0.1,0,0.1,0.1,0.2,0.1c0.1,0.1,0.3,0,0.5,0.1c-0.1,0-0.3,0-0.5,0.1c-0.1,0-0.1,0.1-0.2,0.1c-0.3,0.2-0.5,0.5-1,0.3
		c-0.2-0.1-0.5,0.1-0.7,0.2c-0.2,0.2-0.4,0.2-0.7,0.1c-0.2-0.1-0.5,0.2-0.5,0.4c0,0.2,0.2,0.4,0.4,0.4c0.1,0,0.1,0,0.2,0
		c0.4,0,0.7,0,1,0.2c0.4,0.3,0.9,0.2,1.3-0.1c0.3-0.2,0.6-0.2,0.9,0c0.2,0.1,0.5,0.3,0.7,0.2c0.3-0.1,0.6-0.1,0.9,0.1
		c0.2,0.1,0.5,0.1,0.8,0c0.6-0.1,0.6-0.1,0.7,0.5c0,0.2,0,0.4,0,0.6c0,0.4-0.1,0.8-0.1,1.3c0,0.4,0.1,0.8,0.1,1.3c0,0.2,0,0.3,0,0.5
		c-0.1,0.3,0,0.6,0,0.9c0,0.5,0,1,0,1.5c0,0.2-0.1,0.3,0,0.5c0.1,0.6,0.1,1.2,0,1.8c0,0.1,0,0.3,0,0.4c0.1,0.6,0,1.2,0,1.8
		c0,0.6,0.1,1.3,0,1.9c-0.4,0.1-0.6-0.2-1-0.2c-0.4,0-0.6-0.2-0.8-0.5c-0.2-0.2-0.2-0.5-0.4-0.7c-0.2-0.2-0.6-0.1-0.8-0.3
		c0.4-0.9,0.4-1.1-0.1-2.1c-0.1-0.3-0.2-0.7,0-1c0.1-0.1,0.1-0.2,0.1-0.4c0.1-0.3,0.2-0.6-0.1-0.9c-0.3-0.4-0.4-0.8-0.1-1.3
		c0.2-0.3,0.1-0.5,0-0.8c-0.3-0.7-0.7-1.3-0.8-2.1c0-0.2-0.2-0.3-0.4-0.3c-0.2,0-0.3,0.1-0.4,0.4c-0.1,0.4-0.3,0.9-0.5,1.3
		c-0.3,0.6-0.5,1.2-0.2,1.9c0.1,0.2,0.1,0.3,0,0.5c-0.2,0.5-0.1,1,0.1,1.5c0,0.1,0.1,0.3,0,0.4c-0.2,0.3-0.1,0.7-0.4,1
		c-0.4,0.4-0.3,0.9-0.3,1.3c0,0.3,0.1,0.5,0.2,0.9c-0.6,0.1-1,0.3-1.2,0.9c-0.1,0.2-0.4,0.4-0.7,0.5c-0.2,0-0.4,0.1-0.6,0.2
		c-0.5,0.2-0.8,0.6-0.7,1.2c0,0.3,0,0.6-0.1,0.9c-0.8,1.9-1.3,3.9-1.8,6c-0.1,0.4-0.2,0.8-0.4,1.2c-0.2,0.4-0.5,0.8-0.5,1.2
		c0,0.3-0.2,0.6-0.4,0.6c-0.7,0.3-0.8,0.9-1,1.5c-0.1,0.7-0.4,1.3-0.5,2c0,0.2-0.1,0.3-0.2,0.4c-0.3,0.3-0.4,0.6-0.5,0.9
		c-0.2,0.5-0.5,0.8-1,1c-0.1-0.1-0.2-0.2-0.2-0.3c-1.1-1.8-2.5-3.3-4.1-4.6c-1.3-1-2.7-1.8-4.2-2.4c-0.2-0.1-0.4-0.1-0.5-0.3
		c-0.1-0.4-0.4-0.5-0.8-0.5c-0.5-0.1-0.7-0.6-0.5-1.1c0-0.1,0.1-0.2,0.2-0.2c0.5-0.4,0.3-0.9,0.3-1.4c0-0.2-0.1-0.3-0.3-0.4
		c-0.2-0.1-0.3-0.2-0.3-0.4c0-0.4,0.1-0.8,0.1-1.3c0.1-0.4-0.2-0.9-0.1-1.3c0-0.1,0-0.3,0.1-0.4c0.1-0.2,0.1-0.4,0-0.6
		c-0.1-0.2-0.1-0.5-0.1-0.7c0.1-0.7,0.1-1.3,0-2c0-0.2,0-0.3,0-0.5c0.1-0.4,0.1-0.7,0-1c-0.1-0.4,0.1-0.9,0.1-1.3
		c0-0.4-0.2-0.9-0.1-1.3c0.1-0.4,0.1-0.8,0-1.2c-0.1-0.4,0.1-0.8,0.1-1.3c0-0.4-0.2-0.9-0.1-1.3c0-0.2,0.1-0.4,0.3-0.4
		c0.2,0,0.5-0.1,0.7-0.2c0.1-0.1,0.2-0.3,0.1-0.4c0-0.1-0.1-0.2-0.2-0.3c-0.2-0.1-0.5,0.1-0.6-0.2c0-0.3,0.1-0.6-0.1-0.9
		c-0.2-0.2-0.2-0.4-0.2-0.6c0-0.1-0.1-0.2-0.3-0.2c-0.1,0-0.2,0.1-0.3,0.2c-0.3,0.5-0.5,1.1-0.4,1.7c-0.4,0-0.7,0.1-0.9,0.5
		c-0.1,0.1-0.3,0.3-0.5,0.3c-0.5,0.1-0.9,0.3-1.3,0.3c-0.8,0-1.4,0.5-2,0.9c0,0-0.1,0.1,0,0.2c0,0.1,0.1,0.2,0.2,0.2
		c0.3,0,0.6,0,0.9,0c0.1,0,0.3,0,0.3,0.2c-0.1,0.2-0.4,0.4-0.5,0.4c-0.6-0.1-1.1,0.5-1.8,0.4c-0.1,0-0.2,0.1-0.3,0.3
		c-0.1,0.2,0.2,0.5,0.4,0.5c0.4-0.1,0.8-0.1,1.1,0.1c0.4,0.3,0.8,0.2,1.2-0.1c0.2-0.2,0.5-0.2,0.7,0c0.2,0.1,0.4,0.3,0.6,0.2
		c0.4-0.1,0.7-0.1,1,0.1c0.2,0.1,0.4,0,0.6,0c0.4-0.1,0.4,0,0.6,0.3c0,0.2,0.1,0.3,0.1,0.5c0,0.4-0.1,0.8-0.1,1.3
		c0,0.4,0.1,0.9,0.1,1.4c0,0.1,0,0.3-0.1,0.4c-0.1,0.2-0.1,0.3,0,0.5c0.1,0.5,0,1.1,0,1.6c0,0.5,0.1,1.1,0.1,1.6
		c0,0.1-0.1,0.2-0.1,0.3c0,0.1,0,0.2,0,0.3c0.2,0.5,0.1,1,0,1.5c-0.1,0.6,0.2,1.1,0.1,1.6c0,0.1,0,0.1,0,0.2
		c-0.1,0.1-0.1,0.2-0.2,0.2c-0.5,0.1-1-0.2-1.2-0.7c-0.1-0.3-0.3-0.5-0.6-0.5c-0.4-0.1-0.4-0.1-0.2-0.5c0.2-0.4,0.2-0.7-0.1-1.1
		c-0.3-0.4-0.6-0.8-0.6-1.3c0-0.2-0.2-0.3-0.4-0.3c-0.2,0-0.4,0.1-0.4,0.3c-0.1,0.5-0.2,0.9-0.5,1.2c-0.5,0.5-0.4,0.9-0.1,1.3
		c0,0.1,0,0.2,0.1,0.3c-0.2,0-0.3,0.1-0.5,0.1c-0.2,0-0.3,0.1-0.4,0.3c-0.2,0.6-0.6,0.8-1.1,0.9c-0.1,0-0.1,0-0.2,0.1
		c-0.5,0.3-0.6,0.9-0.2,1.3c0.2,0.2,0.4,0.3,0.6,0.4c0,0,0.1,0.1,0,0.2c0,0.1-0.1,0.1-0.1,0.1c-0.6,0.1-1,0.3-1.5,0.7
		c-0.2,0.2-0.4,0.3-0.7,0.3c-0.3,0-0.5,0.1-0.6,0.5c0,0.2-0.3,0.3-0.5,0.3c-0.9,0.3-1.7,0.7-2.5,1.2c-2.7,1.6-4.8,3.8-6.3,6.6
		c-0.6,1.2-1.2,2.5-1.4,3.8c0,0.1-0.1,0.3-0.2,0.3c-0.1,0.1-0.2-0.1-0.3-0.2c0,0,0-0.1-0.1-0.1c-0.2-0.2-0.5-0.1-0.5,0.1
		c-0.1,0.6-0.1,1.2-0.1,1.8c0,0.3,0.1,0.6,0,0.9c-0.2,0.5-0.2,1-0.2,1.4c0,0.9,0,0.9-0.7,1.3c-0.1,0.1-0.3,0.2-0.4,0.2
		c-0.2,0-0.3,0.2-0.4,0.4c0,0.4,0,0.8,0.1,1.2c0.1,0.3,0.3,0.4,0.6,0.5c0.2,0,0.6-0.1,0.6,0.2c0,0.2-0.4,0.1-0.6,0.2
		c-0.3,0.1-0.6,0.2-0.8,0.2c-0.2-0.2-0.3-0.4-0.5-0.5c-0.1-0.1-0.3-0.1-0.4,0c-0.1,0.1-0.2,0.1-0.4,0.1c0-0.1-0.1-0.2-0.1-0.2
		c-0.1-0.4-0.3-0.7-0.7-0.6c-0.1,0-0.3-0.1-0.3-0.2c-0.1-0.4-0.3-0.6-0.7-0.6c-0.2,0-0.2-0.2-0.3-0.3c-0.3-0.5-0.4-0.5-0.9-0.2
		c-0.4,0.2-0.7,0.2-0.8-0.2c-0.2-0.4-0.5-0.8-0.5-1.2c0-0.3-0.2-0.6-0.3-0.8c-0.1-0.2-0.2-0.2-0.4-0.3c-0.2,0-0.4,0.1-0.5,0.3
		c-0.1,0.2-0.2,0.5-0.3,0.7c0,0.5-0.3,0.8-0.5,1.2c-0.2,0.4-0.4,0.4-0.8,0.2c-0.4-0.2-0.5-0.2-0.8,0.2c-0.1,0.2-0.2,0.4-0.5,0.4
		c-0.3,0-0.5,0.1-0.5,0.5c0,0.2-0.2,0.3-0.4,0.3c-0.4,0-0.5,0.2-0.6,0.5c0,0.1,0,0.1-0.1,0.2c-0.1,0.2-0.2,0.2-0.4,0.1
		c-0.5-0.2-0.5-0.2-0.7,0.1c-0.1,0.2-0.3,0.4-0.6,0.4c-0.4,0-0.6,0.4-0.6,0.8c0,0.3,0,0.7-0.3,0.8c-0.5,0.3-0.5,0.8-0.7,1.2
		c-0.2,0.5-0.3,1-0.2,1.5c0.1,0.5,0,0.6-0.5,0.6c-0.3,0-0.6,0-0.9,0c-0.5,0-0.7-0.2-0.8-0.6c-0.1-0.9-0.5-1.7-0.6-2.5
		c0-0.6-0.2-1.2-0.5-1.7c-0.2-0.5-0.4-1.1-1-1.3c-0.2-0.1-0.2-0.2-0.3-0.4c-0.1-0.3-0.1-0.6-0.2-0.9c-0.1-0.4-0.1-0.9-0.4-1.2
		c-0.6-0.5-0.8-1.3-1-2c-0.1-0.4-0.3-0.8-0.4-1.2c-0.1-0.2-0.1-0.4-0.3-0.5c-0.3-0.2-0.5-0.5-0.6-0.9c-0.1-0.3-0.2-0.5-0.4-0.8
		c-0.1-0.1-0.2-0.2-0.2-0.3c-0.1-0.8-0.5-1.6-0.6-2.5c-0.1-0.5-0.3-0.9-0.7-1.2c-0.3-0.2-0.6-0.4-0.6-0.7c0-0.5-0.3-0.9-0.6-1.3
		c-0.2-0.4-0.4-0.8-0.4-1.2c-0.1-0.3-0.1-0.6-0.2-0.9c-0.1-0.5-0.3-1.1-0.3-1.6c-0.1-0.5-0.3-1-0.5-1.6c0-0.1,0-0.1-0.1-0.2
		c-0.1-0.2-0.1-0.4,0.1-0.6c0.2-0.2,0.2-0.5,0.1-0.7c-0.1-0.2-0.1-0.4,0.1-0.6c0.3-0.3,0.1-0.7,0.2-1.1c0-0.3-0.2-0.4-0.4-0.5
		c-0.2-0.1-0.2-0.4-0.2-0.6c0-0.4,0.1-0.8,0.1-1.2c0.1-0.4-0.2-0.8-0.1-1.2c0-0.4,0.1-0.7,0.1-1.1c0-0.4-0.1-0.8-0.1-1.2
		c0-0.3,0.1-0.6,0.1-1c0-0.3-0.1-0.7-0.1-1.1c0-0.4,0.1-0.8,0.1-1.2c0-0.4-0.1-0.8-0.1-1.2c0-0.3,0.1-0.6,0.1-1
		c0-0.3-0.1-0.7-0.1-1.1c0-0.4,0.1-0.8,0.1-1.2c0-0.4-0.1-0.8-0.1-1.2c0-0.3,0.1-0.6,0.1-1c0-0.3-0.2-0.7-0.1-1.1
		c0-0.3-0.1-0.5,0.1-0.8c0.2-0.2,0.4-0.1,0.6-0.1c0,0,0.1,0,0.1,0c0.2-0.1,0.3-0.2,0.3-0.4c0-0.2-0.1-0.4-0.3-0.4
		c-0.2,0-0.4,0-0.6-0.2c0.3-0.7-0.2-1.3-0.4-1.9c-0.1-0.1-0.2-0.2-0.3-0.1c-0.1,0-0.2,0.1-0.2,0.2c0,0.4-0.3,0.7-0.4,1
		c-0.1,0.2,0,0.5-0.1,0.8c-0.1,0.3-0.5,0.1-0.7,0.3c-0.1,0.1-0.2,0.2-0.2,0.3c-0.1,0.2-0.3,0.3-0.5,0.3c-0.6,0-1,0.4-1.6,0.3
		c-0.2,0-0.5,0.1-0.7,0.2c-0.5,0.2-0.9,0.5-1.4,0.7c-0.1,0-0.1,0.1-0.2,0.2c0,0,0,0.1,0,0.2c0,0.1,0.1,0.1,0.1,0.1
		c0.3,0,0.6-0.1,0.9-0.1c0.5,0.1,0.9,0.3,1.4-0.1c0,0,0.1,0,0.2,0c0.1,0.1,0.3,0.1,0.2,0.3c0,0.1-0.1,0.1-0.2,0.2
		c-0.1,0.1-0.3,0.1-0.4,0.1c-0.5-0.2-0.8-0.1-1.2,0.2c-0.1,0.1-0.3,0.2-0.4,0.1c-0.1,0-0.3-0.1-0.4,0c-0.4,0.2-0.9,0.4-1.4,0.4
		c-0.2,0-0.2,0.2-0.2,0.4c0,0.2,0.1,0.4,0.4,0.4c0.6,0,1.1,0,1.6,0.3c0.2,0.1,0.5,0.1,0.6-0.1c0.4-0.4,0.9-0.5,1.4-0.1
		c0.1,0.1,0.4,0.1,0.6,0.1c0.2,0,0.3-0.1,0.5,0c0.6,0.3,1.1,0.2,1.8,0c0,0.5,0.3,0.9,0.2,1.4c-0.1,0.8,0,1.5,0,2.3
		c0,0.6,0,1.3,0,1.9c0,0.4,0,0.8-0.1,1.2c-0.1,0.4,0.2,0.8,0.1,1.2c0,0.2,0,0.4-0.1,0.6c-0.1,0.3-0.1,0.5,0,0.8
		c0.1,0.2,0.1,0.4,0.1,0.6c0.1,0.4-0.2,0.8-0.1,1.3c0,0.4,0.2,0.8,0.1,1.3c0,0.6-0.1,0.7-0.7,0.5c-0.1-0.1-0.3-0.1-0.5-0.2
		c-0.4,0-0.7-0.3-0.8-0.6c-0.1-0.3-0.3-0.6-0.7-0.6c-0.1,0-0.3,0-0.4-0.2c0.4-0.6,0.4-1.3,0-1.9c-0.3-0.5-0.3-1,0-1.5
		c0.2-0.3,0.2-0.7,0-1c-0.2-0.3-0.3-0.7-0.2-1c0.3-0.6,0.1-1.2-0.2-1.8c-0.3-0.5-0.5-0.9-0.5-1.4c0-0.2-0.2-0.3-0.4-0.3
		c-0.2,0-0.3,0.1-0.3,0.3c-0.2,0.8-0.5,1.5-0.8,2.2c-0.1,0.3-0.1,0.6,0,0.8c0.2,0.5,0.2,0.9-0.1,1.3c-0.2,0.3-0.2,0.5-0.1,0.8
		c0,0.1,0.1,0.3,0.1,0.4c0.2,0.3,0.2,0.7,0,1c-0.3,0.4-0.3,0.9-0.2,1.4c0,0.3,0.2,0.5,0.1,0.7c-0.1,0.3-0.5,0.1-0.7,0.3
		c-0.2,0.1-0.4,0.3-0.4,0.5c-0.1,0.3-0.4,0.5-0.7,0.6c-0.3,0.1-0.6,0.2-0.8,0.3c-0.5,0.3-0.7,0.6-0.6,1.2c0,0.2,0.1,0.4,0,0.6
		c-0.7,1.6-1.2,3.2-1.5,4.8c-0.1,0.4-0.3,0.9-0.3,1.3c0,0.4-0.1,0.7-0.4,1.1c-0.3,0.3-0.5,0.8-0.5,1.2c-0.1,0.5-0.3,0.8-0.7,1
		c-0.2,0.1-0.4,0.3-0.5,0.6c-0.2,0.7-0.5,1.4-0.6,2.1c-0.2,0.9-0.7,1.6-1,2.4c0,0.1-0.1,0.2-0.2,0.3c-0.4,0.2-0.5,0.6-0.6,1
		c-0.1,0.3-0.1,0.6-0.2,0.8c-0.2,0.5-0.3,1-0.6,1.5c-0.3-0.3-0.4-0.6-0.5-0.9c-0.1-0.3-0.6-0.3-0.7,0c-0.1,0.3-0.3,0.6-0.4,0.9
		c-0.1,0.4-0.3,0.8-0.5,1.2c-0.2,0.4-0.4,0.5-0.8,0.2c-0.4-0.2-0.6-0.2-0.8,0.2c-0.1,0.3-0.3,0.4-0.6,0.4c-0.3,0-0.4,0.2-0.5,0.4
		c0,0.2-0.2,0.3-0.4,0.3c-0.4,0-0.5,0.2-0.6,0.6c-0.1,0.4-0.1,0.3-0.5,0.2c-0.4-0.2-0.5-0.2-0.7,0.2c0,0.1,0,0.1-0.1,0.2
		c-0.1,0.2-0.4,0.2-0.6,0.1c-0.1-0.1-0.2-0.3-0.3-0.4c-0.1-0.1-0.3-0.2-0.3-0.1c-0.5,0.4-0.7,0.1-0.8-0.4c0-0.1-0.1-0.1-0.1-0.1
		c-0.4-0.1-0.9-0.2-0.9-0.8c0-0.1-0.2-0.1-0.3-0.1c-0.3,0-0.4-0.2-0.6-0.4c-0.2-0.4-0.3-0.4-0.7-0.2c-0.1,0-0.1,0.1-0.2,0.1
		c-0.3,0.1-0.5,0.1-0.7-0.2c-0.2-0.4-0.5-0.8-0.5-1.2c0-0.4-0.2-0.7-0.4-1c-0.1-0.2-0.5-0.3-0.6,0c-0.2,0.2-0.4,0.5-0.3,0.8
		c0,0.5-0.3,0.9-0.5,1.3c-0.2,0.5-0.4,0.5-0.9,0.2c-0.4-0.2-0.5-0.2-0.8,0.3c-0.1,0.2-0.2,0.3-0.4,0.3c-0.3,0-0.5,0.1-0.5,0.4
		c-0.1,0.2-0.2,0.3-0.4,0.3c-0.4,0-0.5,0.2-0.6,0.5c0,0.1-0.1,0.2-0.2,0.3c-0.1,0-0.2,0-0.2,0c-0.6-0.2-0.6-0.2-0.9,0.3
		c-0.1,0.1-0.1,0.2-0.3,0.3c-0.6,0-0.7,0.4-0.8,0.9c0,0.3,0,0.5-0.3,0.7c-0.1-0.3-0.1-0.7-0.2-1.1c-0.1-0.3-0.3-0.6-0.7-0.6
		c-0.2,0-0.3-0.1-0.4-0.3c-0.3-0.5-0.3-0.5-0.9-0.3c-0.1,0-0.1,0-0.2,0c-0.1-0.2-0.2-0.4-0.3-0.6c0-0.1-0.1-0.2-0.2-0.2
		c-0.4,0-0.6-0.2-0.8-0.6c-0.1-0.2-0.2-0.2-0.4-0.2c-0.3,0-0.4-0.2-0.5-0.4c-0.3-0.5-0.4-0.5-0.8-0.2c-0.3,0.2-0.6,0.2-0.7-0.1
		c-0.2-0.3-0.5-0.7-0.5-1c0-0.5-0.2-0.8-0.4-1.2c-0.1-0.3-0.6-0.3-0.7,0c-0.2,0.3-0.3,0.6-0.4,1c-0.1,0.3-0.2,0.5-0.3,0.8
		c-0.1,0.2-0.2,0.5-0.5,0.6c-0.2,0.1-0.4-0.1-0.6-0.2c-0.2-0.1-0.4-0.1-0.5,0.1c-0.2,0.4-0.4,0.7-0.9,0.7c-0.2,0-0.2,0.2-0.3,0.4
		c0,0.2-0.1,0.3-0.3,0.3c-0.4,0-0.6,0.2-0.7,0.6c-0.1,0.2-0.2,0.3-0.4,0.2c-0.4-0.2-0.5-0.1-0.7,0.2c-0.1,0.2-0.1,0.4-0.4,0.4
		c-0.5,0-0.6,0.3-0.7,0.7c-0.1,0.3-0.5,1-0.7,1.2c0,0-0.1,0-0.1,0.1c-0.1,0.6-0.6,1-0.5,1.6c0,0.3,0,0.6,0.1,0.9
		c0.1,0.2,0,0.5-0.2,0.6c-0.4,0.3-0.5,0.6-0.3,1c0.1,0.2,0.1,0.3,0,0.5c-0.1,0.2-0.2,0.5,0,0.7c0.1,0.2,0.2,0.4,0,0.6
		c-0.1,0.2-0.1,0.4-0.1,0.6c0.1,1.3,0.1,1.3-1.1,1.9c-0.3,0.1-0.5,0.3-0.8,0.4c-0.1,0-0.2,0.1-0.3,0.1c-0.2,0.2-0.3,0.5-0.2,0.8
		c0.1,0.2,0.3,0.2,0.5,0.2c0.2,0,0.5,0,0.7,0c0.1,0,0.2,0,0.2,0.1c0.1,0.5,0.5,0.7,0.8,0.9c0.2,0.2,0.3,0.4,0.3,0.7
		c0,0.2,0,0.3,0,0.5c-0.8,0-0.8,0-1.2,0.6c-0.2,0.2-0.3,0.5-0.6,0.6c-0.2,0.1-0.3,0.3-0.3,0.6c0,0.2,0.1,0.4,0.1,0.6
		c0,0.1,0,0.2-0.1,0.3c-0.3,0.4-0.7,0.7-1.2,0.7c-1.1,0-0.8,0-1.1,1c0,0.1,0,0.3,0,0.4c0,0.3-0.1,0.5-0.3,0.6
		c-0.3,0.2-0.3,0.4,0,0.7c0.1,0.1,0.1,0.2,0.2,0.2c0.3,0.1,0.4,0.3,0.4,0.6c0,0.6,0,1.2,0,1.8c0,0.6-0.1,1-0.6,1.4
		c-0.2,0.2-0.2,0.3-0.1,0.5c0.1,0.1,0.2,0.2,0.2,0.3c0.2,0.2-0.1,0.3-0.2,0.3c-1.5,0.8-3,1.5-4.5,2.3c-1.7,0.9-1.7,0.9-3.6,0.9
		c0,0-0.1,0-0.1,0c-0.4,0-0.8,0.1-1.1,0.2c-0.6,0.3-1.1,0.5-1.7,0.8c-0.4,0.2-0.9,0.3-1.4,0.3c-2,0-4,0-6,0c-0.3,0-0.5,0-0.8,0
		c-0.3,0-0.5,0.2-0.5,0.5c0,0.3,0,0.7,0,1c0,0.2-0.1,0.3-0.3,0.3c-0.8,0.1-1.6,0.1-2.3,0.1c-4.8,0-9.7,0-14.5,0c-0.3,0-0.7,0-1,0
		c-0.5,0-0.7,0.1-0.7,0.6c0,0.6,0,1.2,0,1.9c0,0.5-0.1,0.6-0.6,0.6c-0.2,0-0.5,0-0.7,0c-2.1,0-4.2,0-6.4,0c-0.3,0-0.5,0-0.8,0
		c-0.2,0-0.4,0.1-0.4,0.4c0,0.2,0,0.4,0,0.6c0,0.6,0,1.2,0,1.8c0,0.8,0,0.8-0.8,0.8c-0.7,0-1.4,0-2.2,0c-1.4,0-2.7,0-4.1,0
		c-1,0-1,0-1,1c0,0.3,0,0.6,0,0.9c0,0.9,0,0.9-0.9,0.9c-0.2,0-0.3,0-0.5,0c-1.7,0-3.3,0-5,0c-0.2,0-0.5,0-0.7,0
		c-0.4,0-0.5,0.1-0.5,0.6c0,0.2,0,0.5,0,0.7c0,0.4,0,0.8,0,1.3c0,0.5-0.1,0.6-0.6,0.6c-0.1,0-0.2,0-0.3,0c-2.2,0-4.5,0.1-6.7,0.1
		c-0.1,0-0.1,0-0.2,0c-0.4,0-0.5,0.1-0.5,0.5c0,0.2,0,0.6,0,2c0,0.2,0,0.5,0,0.8c0,0.7,0,1.1,0,2.1
		C84.8,133.6,107.3,129.3,128.5,125.1z"/>
</g>
</svg>
